/* XPM */
static char *ab5079603e574e4788b81ea048644ee4kZ4DwI2dDTmum0Xp[] = {
/* columns rows colors chars-per-pixel */
"75 75 189 2 ",
"   c #000017",
".  c #00001C",
"X  c #000024",
"o  c #01002B",
"O  c #000133",
"+  c #050B33",
"@  c #01013B",
"#  c #070E3B",
"$  c #081036",
"%  c #09133D",
"&  c #010144",
"*  c #01014B",
"=  c #03084C",
"-  c #0A1542",
";  c #0D1C45",
":  c #0A164B",
">  c #0E1E4C",
",  c #010253",
"<  c #050A53",
"1  c #01025B",
"2  c #050C5D",
"3  c #0C1754",
"4  c #071058",
"5  c #09145A",
"6  c #0C1A5C",
"7  c #0F2147",
"8  c #102248",
"9  c #13294D",
"0  c #112354",
"q  c #13265B",
"w  c #173154",
"e  c #19355A",
"r  c #1A395D",
"t  c #020263",
"y  c #050A65",
"u  c #080C63",
"i  c #02036B",
"p  c #0A1365",
"a  c #0D1D63",
"s  c #0A166A",
"d  c #0B186D",
"f  c #101E69",
"g  c #020373",
"h  c #050A76",
"j  c #03047B",
"k  c #050A7A",
"l  c #0B1374",
"z  c #0C1B75",
"x  c #0A147C",
"c  c #0D1C7B",
"v  c #0F2165",
"b  c #102267",
"n  c #142A64",
"m  c #142C6B",
"M  c #1B3B63",
"N  c #1C3C6B",
"B  c #0F217C",
"V  c #102371",
"C  c #152C73",
"Z  c #11247F",
"A  c #142B7A",
"S  c #17327B",
"D  c #1C3A7B",
"F  c #21466C",
"G  c #214875",
"H  c #224976",
"J  c #030383",
"K  c #070B81",
"L  c #080E85",
"P  c #030589",
"I  c #060A8E",
"U  c #080E8D",
"Y  c #081083",
"T  c #09118B",
"R  c #0E1F88",
"E  c #070A90",
"W  c #080E92",
"Q  c #0A1292",
"!  c #101E99",
"~  c #122682",
"^  c #142A83",
"/  c #11248C",
"(  c #152D8B",
")  c #182F8A",
"_  c #173282",
"`  c #183283",
"'  c #17328D",
"]  c #18348C",
"[  c #1C3D89",
"{  c #122790",
"}  c #152A94",
"|  c #182F92",
" . c #193692",
".. c #1B3B95",
"X. c #1D3E9A",
"o. c #142AA2",
"O. c #1A36A6",
"+. c #1E3CA9",
"@. c #1E4294",
"#. c #1E419B",
"$. c #224B88",
"%. c #265183",
"&. c #25518C",
"*. c #204696",
"=. c #234C95",
"-. c #21459D",
";. c #244C9C",
":. c #275292",
">. c #285692",
",. c #295B94",
"<. c #25529D",
"1. c #1F43AC",
"2. c #2146A6",
"3. c #234CA3",
"4. c #244DAB",
"5. c #2752A2",
"6. c #2857A5",
"7. c #2A5AA4",
"8. c #2652AC",
"9. c #2856AA",
"0. c #2A5AAD",
"q. c #2856B0",
"w. c #2B5CB3",
"e. c #2A5CB9",
"r. c #2D62A0",
"t. c #2D61AC",
"y. c #3069A6",
"u. c #336DAB",
"i. c #3572AE",
"p. c #2D63B4",
"a. c #2F63BC",
"s. c #3067B4",
"d. c #326CB5",
"f. c #3067BA",
"g. c #326CBB",
"h. c #3674B6",
"j. c #3878B5",
"k. c #3573BD",
"l. c #3778BF",
"z. c #397CBB",
"x. c #3573C3",
"c. c #3A7DC1",
"v. c #3875CA",
"b. c #3A7CCC",
"n. c #3E82B7",
"m. c #3C82BD",
"M. c #3C83C2",
"N. c #3E88C6",
"B. c #3D85CD",
"V. c #3F8AC9",
"C. c #3F86D1",
"Z. c #3F89D1",
"A. c #418DCD",
"S. c #4799C7",
"D. c #4492CD",
"F. c #418DD3",
"G. c #438FDC",
"H. c #4493D3",
"J. c #4799D5",
"K. c #489BD6",
"L. c #4493DB",
"P. c #479ADC",
"I. c #499DDB",
"U. c #4BA1DB",
"Y. c #4799E0",
"T. c #499DE3",
"R. c #479CF8",
"E. c #499EF8",
"W. c #4BA2E5",
"Q. c #4FAAE4",
"!. c #4CA5EB",
"~. c #4DA6EA",
"^. c #4FAAED",
"/. c #4EA9EE",
"(. c #4FAAEF",
"). c #50ADE8",
"_. c #56B8E6",
"`. c #53B2E9",
"'. c #4CA5F5",
"]. c #4FAAF1",
"[. c #4FACF3",
"{. c #4EAAF4",
"}. c #4FACF7",
"|. c #4CA5F8",
" X c #51AFF0",
".X c #50ADF3",
"XX c #50ADF4",
"oX c #53B2F2",
"OX c #56BAF7",
/* pixels */
"    . X X X X X o o o O @ O @ O @ @ @ @ @ & & @ & & & & & & & & & & & * * * * * * * * * * , * * , * , * * * * * , * * * * * & & @ @ @ @ @ o O o o o X ",
"  . . . . X X X o O O o O @ @ @ @ @ & & & & & & & * & * * & * * * * * * * * * * , * , * , * , * , * , , , , , , , , * , * * * & & & & @ @ @ O o o o o ",
"  . X X X X o o o + O @ @ @ @ @ @ & & & & & & * * * * * * = * * * * * * * * * , , , * , , , , , , , , , , , , , , , , * * * * * * & & & @ @ @ o O O o ",
". . X . X X o o o O O @ @ @ @ @ & & & & & * * * * * * * * * * , * * , , , , , , , , , , , 1 , 1 , 1 , , 1 , 1 , , 1 1 , , , , * * * & & & @ @ @ O o O ",
". X X X o o o O O @ @ @ @ & & & * * * * * , , , , , , , , , , , , , 1 , 1 , 1 1 1 1 1 1 1 1 t 1 t t 1 t t t 1 t t 1 t t t 1 1 , , , * * & & @ @ @ O o ",
". X X o o o o O @ @ & & * * , , , , , 1 1 1 1 1 1 1 1 t t t t t i t t t t i t i i i i i i i i i i i g i h i h g g h g g g i t i 1 , , * * & & & @ @ @ ",
"X X X o o o O @ @ @ * 4 a V A A A ` ` ` ` ] ] ] ]  . .....@.@.@.@.=.=.;.;.;.;.;.;.5.3.3.3.8.8.0.0.t.p.t.p.p.d.d.d.g.g.x.k.d.;.B i 1 , , * * & & @ @ @ ",
"X X o o o O O & * a <.z.M.N.F.H.H.J.K.I.I.I.U.T.T.W.W.W.~.~.~.~.~./././..X/././.)./.{.{.{.{.{.{.XXXXXXXXoX.XXXXXXXXX}.}.XX}./.K.t.l t 1 , * * & @ @ @ ",
"X o o o o @ @ * D z.d.@.Z B ^ ^ ) ) ) ] ] ] ]  . . . .......X.#.#.#.2.2.3.3.1.5.5.4.8.5.8.8.8.8.q.w.w.a.a.f.f.g.k.g.x.x.b.L.~.'.{.M.c t , , * * * & @ ",
"X X o o O @ & D m.[ y t 1 t t t t 1 1 t 1 t t t t i t t i i i i i i i i i i i i g i i g g g g g g g g g j j j j J P J P I Q O.C.{..Xz.h 1 , , * * & & ",
"o X o o @ @ 6 j.` t 1 1 , , , , , , , , , , , 1 , , , 1 1 1 1 1 1 1 1 1 1 t t 1 t 1 t t t t t i i i t i i i g g g g k k j j P Q b.'.).<.i 1 , , * * & ",
"o o o O @ & :.7.y , , * * * * * * * * = * * * * * , , * , * , , , , , , , 1 , , , , 1 1 1 , 1 1 1 1 t t t i y i i g g g j j j P ! P.E.A.l t 1 , * * * ",
"o o o O @ < i.A , , * * & * & * * & * & * * * * * & * * * * * * * , , , , , , , , , , 1 , 1 , 1 1 1 1 t t t t i i i i g g g j J P e.{.).' i 1 , , * * ",
"o o o @ @ a u.p , * & & * & * & * & & * & & & * * * * * * * * * * * * , * * , , , , , , , , 1 , , 1 1 1 t 1 t t i i g g g g g j P +.!.XX5.g t 1 , , * ",
"o o o O @ b y.2 , * & = * & & & * & & * & * * & & * & * * * * * * * * * * * , * , , , , , , , , , 1 1 1 1 t t t t i g g g g g j J O.~.{.6.g t 1 , , * ",
"o o O @ & v r.2 * = & & & & * & & & & & & & & & & & & & & & * & = & * * * * * * * * * * , , , , , , , , 1 1 t t t i i g g g g j P O.{.{.0.g t 1 1 , , ",
"o o o O & v ,.1 * & & & & & @ & @ @ @ @ @ @ @ @ @ & @ @ & @ & @ & & & & & & & * & & * * * * * * , * , , 1 1 1 1 t t i i g g g k P O.~.}.p.g y t 1 1 , ",
"o o o O @ 6 >.< & & & & & @ @ @ @ @ @ @ @ @ @ @ @ @ @ @ @ @ @ @ @ @ @ & & & @ @ & & & & & & * & * * * * , , 1 1 1 t i i i g g j J +.).}.s.g i 1 1 , , ",
"o o o O @ 6 &.< & @ @ @ @ @ @ @ @ @ O @ O O @ O O O @ O O O @ @ O @ @ O @ @ @ @ @ @ & @ & @ & & & & & * * , , , 1 t t i i i g j j +..XXXd.g i t 1 1 , ",
"X o o O @ 3 %.= @ @ @ @ @ @ @ O @ O O O O O O o O O O O O O O O O O @ O O O O @ @ @ @ @ @ @ & & & & & * * * , , 1 1 t i i i g g P 2..XXXg.j i t t 1 , ",
"X o o O @ 3 %.= @ @ O @ @ @ O O O O O o O O O o O o O o O o O O O O O O O O O @ O O @ @ @ @ @ @ @ & & & & * , * , 1 t t i i i g J 2.[.}.g.j i t 1 1 , ",
"o X o O @ : H & @ @ O O o O O O O o o o o o o O o o o O o O o o o O O O O O O O O O O O O @ @ @ @ @ & & & * * * , 1 1 t i i i g J 2.XXXXk.k i t t 1 , ",
"X o o o @ : H & @ o O O O O @ o o o o o o o o o o o o o o O o o o o o O O O O O O O O O O O O @ @ @ @ @ & * * * , , 1 i t i i g j 4.oX|.h.j i t 1 1 1 ",
"X X o o O ; F = @ @ o o O O o O o o o o o o o o o o o o o o o o o o o o o o o o o O o O O O @ @ @ @ @ & & & & * = 1 1 t t i i g j 4.oX|.k.k i i t 1 1 ",
"X X o o O - F & O O o O O o o o o o X X o o X X o o o X X o X o o X o o o o o o o + o O o O O O O @ @ @ & & & * * , 1 t t t i g J 4.).|.c.j i t t 1 1 ",
"X X X o o - F @ O O o o o o o o X o o X X X X o X X o X o X X o X o X o o X o o o o o o o O O O O O @ @ @ & & * * , 1 1 t i i g j 8.oX|.k.k i t t 1 , ",
"X X X o O - M # O o o o o o o o o X X X X X X X X X X X X o X X X X X X o X o o o o o o O O O O O @ O @ @ & & & = , 1 t t t i i J 4.oX|.x.j i t 1 1 1 ",
"X X X X o % M @ o o o o o X o X X X X X X X X X X X X X X X X X X o o o X o X o o o o o o o o O O O O @ @ @ & & * , 1 1 t t i g j 8.oX|.l.k i t 1 t , ",
"X . X o o % e @ o o o o X o o X X X X X X X X X X X X X X X X X X X o X X X o X o o o o o o o O O O O @ @ @ & & & , 1 1 1 i i i j 8.oX|.l.k i t 1 1 1 ",
"X X X X o $ e O o o X o o X X o o X X X . X X X X X X X X X X X X X X X o X o X X o o o o o o o o O O O @ @ @ & & * , 1 1 1 t i j 8.oX|.c.k i 1 1 1 , ",
"X X X o o $ w + o o o o o X o X X X X X X X X X X . X X . X X X X X X X X X X X X o X o o o o o o O O O O @ @ @ & * , , , 1 1 i j 8.oX|.c.j i t 1 , , ",
"X X X X X $ 9 O o o o o X o X X X X X X X X X X X X X X X X . X X X X X X X X X X X o X o X o o o o o O O @ @ @ & * * , , , 1 i j 8.oX|.M.g i 1 , , , ",
"X X X X X + 9 O o o o o o X o X X X X X X X X X X . X . . X . X X X X X X X X X X X X o X o o o o o O O O @ @ @ @ & * , , , 1 t g 8.oX|.A.i t 1 , , * ",
"X X o o X + 8 O o o o o o o o o X X X X X X X X X X X X X . X X X . . X X X X X X X X X X X X o o o o o O O O @ @ & * * * , , 1 i -._.OXu.t 1 1 * , * ",
"o o o o o + 7 O O o o o o o o o o o X o o X X X X X X . X . X . X X X X X X X X X X X X X X o o o o o O O O O O @ @ & & * * * 1 1 l n.S.A 1 , * * * & ",
"o o o O O O - O O O O O O O O o o o o o o X X X X X X X X X X . . X . X . X . X X X X X X o X o o o o o o O O @ @ @ & & & & * * * 1 u p 1 * * & & & @ ",
"O O O O O O + O O O O O O O O o O o o o o X o o X X X X X X . X X X X X X . X X X X X X X X X X X X X o o + O O o @ @ @ & & & & * & * * * & & & @ @ @ ",
"O @ @ O O @ @ O @ @ @ @ @ @ @ @ O o O o o X X X X X X X X X X X . X . X X X . X . X . X X X X X X o o X o o o @ O O O @ @ @ @ & @ @ @ @ @ @ @ O @ @ @ ",
"@ @ @ @ @ & @ & @ & @ @ @ @ @ @ O o o O o o o X X X X X X X X X X X X . X X X X X X X . X X X X X X o o o o O o o O O @ O @ @ @ O @ O O @ O @ O O O O ",
"@ @ & & * * * * * & & & @ & @ @ O O O o o o o o o o X X X X X . . X X X . X . X . X X X X X X X X X X X X o o o o O O O O @ O O O + @ O @ o O + o o o ",
"& & * * , f A u 1 , * * & & & @ @ O O O O o o o X o X X X X X X X X X . . X X X X X X X . X X X X X X X X o o X o o O o O @ O o O O # % @ o o o o o o ",
"* * , , u n._.7.i 1 , , * * & & @ @ O @ O O o o o o o X X X X X X X X X X X X . X . X . X X X . X . X X X X X o o o o o o o O o O o % % o o X o o X X ",
"= * , t Z `.{.K.x t 1 , , * * & & @ @ O O O O o o o X o o X X X X X X X X X X X . X X X . X . X . X X X X X X o X o o o o o o o o o % ; o o X o X X X ",
", , 1 y ) `.R.U.Y i 1 1 , , * * & @ @ @ O O O o o o o o o X X o X X X X X X X . X X X . X X X X X X X X X X X X o X X X X X o o o o % 8 o o X X X X X ",
", 1 t i | `.E.U.T g t 1 1 , , * & & @ # @ O O o o o o o o X X X X X X X X X X X X X X . X X . X . X . X X X X X X X X X o X o o o o % 8 o X X X X X X ",
"1 1 t i | `.E.U.T g t t 1 , , , * & @ @ @ O O O o o o o X o o X o X X X X X X X X . X X . X X X X X X X X X X X X X o X X o o X o o ; 9 o o X X X X . ",
"1 1 t i } ).E.U.T g i t 1 1 , , * & & @ @ O O O O o o o o o X o o X X X X o X X X X X X X X X X X X X X X X X X X X X o o X o o o O ; 9 + o X X X X X ",
"1 1 t g } Q.E.U.T g i t t 1 , , , & & @ @ @ O O O O O O o o o o X o X o X X X X X X X X X X X X X X X X X X X X X o X o X o X o o o > w o o X X X X . ",
"1 1 i g } ).R.K.T k i y t 1 1 , , & & @ & @ @ O O O O o O o o o o o o X X X X o X X X X X X X X X X X X X X X o X X o X o o o o o @ > w o o X X X . X ",
"t t y g } ).E.I.U g i i t t 1 1 , * & & @ @ @ O O O O O o O o o o o X o o o o X o o X o X o X X X X X X X X X X X o X o o o o o O O 0 e @ o o X X X . ",
"t t i g | ).E.K.U j i t t t 1 1 , * * & & @ @ O @ O O O o o o o o o o o o o o o o X X X o X X X o X X X X X X X o X o o o o o + O O 0 r O o o X X . X ",
"1 t i g | `.E.K.U j i i i t 1 , , * * & & @ @ @ O O O O O O O o o o o o o o o o o o o X o X X X X X X X X o X o o o o o o o o O O @ 0 r @ o o X X X X ",
"t t i i } ).E.K.U g g i i t 1 1 , , * & & @ @ @ @ O O O O O O O O O o o o o o o o o o o o o o o o o o o o X o o o o o o O o O O O O q N @ o o o X X X ",
"1 t i g { ).E.K.U j g i i t 1 1 , , * * & & & @ @ @ @ O O O O O O o O O O o O o o o o o o o o o o o o o o o o o o O O o O O O O @ @ q N @ O o X o X X ",
"t 1 i g { ).E.K.U j g i i i t 1 , , * * * & & & @ @ @ @ O @ O O O O O O O O O O O o O o o O O o O o O O O o O o O O O O O O @ @ @ @ n N @ @ o o X X X ",
"1 i y g / Q.E.D.U j i i i i t t 1 , , * * * & & & @ @ @ @ @ @ O @ @ O O O O O O O O O O O o O O O O O o O O O O O O O O @ O O @ @ & n H @ O O o o X X ",
"1 t i g / Q.E.D.U j g i i i i t 1 , , * * * & & & & @ & @ @ @ @ @ @ @ @ O @ O @ O O O O O O O O O O O O O O O O O O @ @ O @ @ @ @ & m H & @ o o o X X ",
"1 1 t g R Q.'.F.U j g g i i i i t 1 , , , * * * & & & & & & & @ & @ @ @ @ @ @ @ @ @ @ O O @ @ O O O O O O O O O O @ @ @ @ O @ @ @ & m $.& @ @ o o o X ",
"1 t t i R W.E.F.U j j g g i i t t 1 1 , , , * * * & * & & & & & & & & & & & @ @ @ @ @ @ @ @ @ @ @ @ @ @ @ @ @ @ @ @ @ @ @ @ & @ & * C %.@ @ O o o o X ",
"1 1 t i R U.E.F.E j g g g i i i t t 1 1 , , , , , * * * * * * * & & & & & & & & & & & & & & & @ @ & & @ & @ & @ & @ & & & & & & & * C &.& @ O o o X X ",
", 1 t i L U.|.b.U j j g g g i i i 1 1 1 1 1 , , , , , , , * , * * * * * & * * & & * & & & & & & & & & & & & & & & & & & & & * & * * S >.= @ O o o o X ",
", , 1 i x U.|.b.E j j g g g g i i i i 1 t 1 1 , , , , , , , , , , * * , * * * * * * * * * * * & * & & & & & & * * & * & * & * & * , [ ,.& @ O O o X X ",
"< , 1 t x D.'.F.W J j g g g g i i y t 1 t 1 1 1 1 , , , , , , , , , , = , * * * * * * * * * * * * * = & * & & & & & & * * * & * * 1 =.&.& @ O o o X X ",
", , , 1 i k.{.~.o.J j j j g g i i i i i i 1 1 1 1 1 1 1 , 1 , , , , , , , * , , * , * , = = = * * = = = * * * * * * * & * * * * , u u.D & @ O O o o X ",
"* * , 1 y ../.'.x.I J J j g g g i i i i i i t t 1 1 1 1 1 1 1 1 , 1 , , 1 , , , 1 , , , , , , * , * * , * * , * * * * * * , * 1 1 ^ i.5 & O O o o X X ",
"= * , , t l M.{./.e.W P J j j j j g g g g i i i i i i i t t t t t i t t 1 t 1 t 1 1 1 1 1 1 1 1 1 1 1 , 1 1 , , , , , , , , 1 1 V j.D * @ O o o X X X ",
"* = , , 1 t ~ K.'.^.b.+.! Q Q U U L L L K L K k k K k k k g k k h g k g h g h i i g i i i i i i i t t i i i t t t t t t t t y _ j.:.< @ O O o o X X X ",
"& & * = , 1 i ) D.{.{./.T.G.G.G.F.F.F.A.F.B.B.b.b.v.v.x.x.x.x.k.x.k.g.g.g.g.d.f.f.f.p.p.p.0.0.0.9.0.0.6.6.6.6.6.5.;.*.@...<.h.c.$.< & @ O o o o X X . ",
"& & & * * , 1 t c t.K.).{.{.{.{.{.{..X/././.).{.{.{.!.!.!.!.!.!.W.T.!.W.W.W.W.W.W.W.T.T.P.P.L.L.L.L.L.F.H.H.F.A.A.V.N.M.z.d.:.b = & @ O O o o o X X X ",
"@ @ & * * * , , t i c  .3.5.3.3.;.2.-.-.-.X.X....... .) ) ) ( ( ( ( ( ( ^ ^ ^ Z ^ Z ~ ~ ~ c B z z z z z z z d d s s s p 2 < , & & O O O o o o X X X . ",
"@ @ & & & * , * , 1 1 i i i i i i i i i i i i i i i i i i i i i i t t t i t t t 1 t 1 1 1 1 1 1 1 1 1 1 , , , , , , * * & & & @ O O O O o o X X . . . ",
"O @ @ @ & & * * * * , , 1 1 1 1 1 t 1 t 1 1 t 1 1 1 1 1 , 1 1 , , 1 , , 1 , , , , , , , , , * , , * * , * * * = & & & & & & @ @ O O O o o X X X . . . ",
"O O @ @ & & & = * = , , , , 1 1 , 1 1 , , 1 1 , 1 , 1 , , , , 1 , , , , , , , , , * , * * * * * * * * * * & & & & @ @ @ @ @ @ O O o o o X X X X .   . ",
"O O O O @ @ & & & & * = * , , , , , , , , , , , , , , , , , , , , , * * , * , * * * * * * * & * & & & & & & & & & @ @ @ O @ O O O o o o X X . . .     ",
"o O O O @ @ @ & & & & * * , * , , , , , , , , , , , , * * , * , , * * * * * * * * * * * * & & & & & & & & @ & & & @ @ @ O O O o O o X X X X X .       "
};
