/* XPM */
static char *_d992cddee7843bfadd37cd2413ba8569H79mTHhIhdATV4A[] = {
/* columns rows colors chars-per-pixel */
"75 75 219 2 ",
"   c #010000",
".  c #0B0101",
"X  c #130101",
"o  c #1B0202",
"O  c #230302",
"+  c #2B0403",
"@  c #2E0507",
"#  c #330504",
"$  c #3C0605",
"%  c #3C0806",
"&  c #3E070A",
"*  c #3C0809",
"=  c #420706",
"-  c #440806",
";  c #4C0A07",
":  c #420709",
">  c #450809",
",  c #4C0A0A",
"<  c #530C07",
"1  c #540C0B",
"2  c #5B0E0C",
"3  c #5F100E",
"4  c #5D0E11",
"5  c #5F1010",
"6  c #610F0D",
"7  c #64110E",
"8  c #6A120F",
"9  c #70140D",
"0  c #610F10",
"q  c #651111",
"w  c #6C1211",
"e  c #731414",
"r  c #7B1615",
"t  c #7D1815",
"y  c #7C1817",
"u  c #831916",
"i  c #841916",
"p  c #841919",
"a  c #8B1B1B",
"s  c #931D1D",
"d  c #9B1F1E",
"f  c #9E201E",
"g  c #A4211F",
"h  c #A9221F",
"j  c #8D1C21",
"k  c #921E22",
"l  c #9B1F21",
"z  c #972026",
"x  c #9D2124",
"c  c #9D2229",
"v  c #A42123",
"b  c #AB2323",
"n  c #A3232B",
"m  c #AC252B",
"M  c #B42525",
"N  c #BB2725",
"B  c #BD2825",
"V  c #B3262B",
"C  c #BA272A",
"Z  c #BE282C",
"A  c #A52732",
"S  c #AB2633",
"D  c #AD2834",
"F  c #AB2B3B",
"G  c #B62731",
"H  c #B32934",
"J  c #BB2934",
"K  c #B52D3D",
"L  c #BB2C3C",
"P  c #C32926",
"I  c #C3292B",
"U  c #CC2C2D",
"Y  c #D22D2D",
"T  c #C42B34",
"R  c #CC2C34",
"E  c #C42D3C",
"W  c #CC2D3B",
"Q  c #D32E33",
"!  c #D92F34",
"~  c #D32F3B",
"^  c #D92F3C",
"/  c #CA303F",
"(  c #DD3037",
")  c #D4303D",
"_  c #DA303D",
"`  c #E03139",
"'  c #B62E41",
"]  c #BC2E42",
"[  c #B53244",
"{  c #BC3144",
"}  c #B7354B",
"|  c #BC344C",
" . c #BD394D",
".. c #AA3851",
"X. c #B83954",
"o. c #BC3C54",
"O. c #B83E60",
"+. c #C32E42",
"@. c #CB2E43",
"#. c #C52F4C",
"$. c #CD2F4D",
"%. c #D32F43",
"&. c #D82F45",
"*. c #C43244",
"=. c #CC3244",
"-. c #C4344C",
";. c #CA334B",
":. c #C33A4E",
">. c #CC394F",
",. c #D33144",
"<. c #DB3143",
"1. c #D4334C",
"2. c #D93248",
"3. c #C43550",
"4. c #CB3351",
"5. c #C33B53",
"6. c #CB3A54",
"7. c #C73758",
"8. c #C23D5A",
"9. c #CC3C5A",
"0. c #D53852",
"q. c #D33D5B",
"w. c #E13953",
"e. c #D13E62",
"r. c #9B445D",
"t. c #BE435B",
"y. c #BB4559",
"u. c #BD4562",
"i. c #BD5775",
"p. c #C4435C",
"a. c #C2465C",
"s. c #CB435C",
"d. c #D74157",
"f. c #D2415C",
"g. c #E0425D",
"h. c #C64562",
"j. c #CB4562",
"k. c #C94A66",
"l. c #C54C6A",
"z. c #CC4D6C",
"x. c #D54864",
"c. c #D34D6B",
"v. c #C7536A",
"b. c #CC526D",
"n. c #D2526D",
"m. c #D44E70",
"M. c #C85574",
"N. c #CE5A75",
"B. c #CD5C7B",
"V. c #D45373",
"C. c #DC5573",
"Z. c #D55A76",
"A. c #DA5977",
"S. c #D55B7C",
"D. c #DB5C7B",
"F. c #E15876",
"G. c #CB617B",
"H. c #D3647D",
"J. c #B76981",
"K. c #CF5D83",
"L. c #D95D82",
"P. c #CB6485",
"I. c #CA6988",
"U. c #D46484",
"Y. c #DC6484",
"T. c #D46986",
"R. c #D46C8B",
"E. c #DE6989",
"W. c #DB6C8C",
"Q. c #D5708A",
"!. c #DB728D",
"~. c #DA6D93",
"^. c #CA7392",
"/. c #D67393",
"(. c #DC7394",
"). c #D67996",
"_. c #DE7A94",
"`. c #DC759A",
"'. c #DC7D9E",
"]. c #E46588",
"[. c #E26B8C",
"{. c #EA708A",
"}. c #E56F93",
"|. c #E37594",
" X c #EA759A",
".X c #E77998",
"XX c #E37C9C",
"oX c #DD7DA4",
"OX c #E97EA4",
"+X c #DF809C",
"@X c #E2819E",
"#X c #DA84A4",
"$X c #D797B1",
"%X c #E584A3",
"&X c #EA83A5",
"*X c #E58AA5",
"=X c #E888A7",
"-X c #EB86AA",
";X c #E58CAB",
":X c #EC8CAC",
">X c #E691AD",
",X c #EB92AE",
"<X c #E68DB2",
"1X c #EC8DB3",
"2X c #E493B3",
"3X c #EC94B4",
"4X c #E49AB6",
"5X c #EC9AB5",
"6X c #ED95BB",
"7X c #E59CBE",
"8X c #ED9BBB",
"9X c #F093B5",
"0X c #F094B9",
"qX c #F09CBC",
"wX c #EEA0BB",
"eX c #ED9DC1",
"rX c #EAA5C4",
"tX c #F1A7C6",
"yX c #F3B5D3",
/* pixels */
"                                                                                                                                                      ",
"                                                                              .     .           .                                                     ",
"                                                                  . . . . . . . . .   .   .                                                           ",
"                                                            . . . . . . . . . . . . . .                                                               ",
"                                                        . . . . X X X X o X X X X X X . . .       .                                                   ",
"                                                        . . X X o o O O O O O O o o X o X X X .                                                       ",
"                                                    . . . X o O O + + # # @ @ @ + + + o o o o X . . .   .                                             ",
"                                                  . . . . o o O + $ : : > > > & $ $ # + O O o X X X . . .   .                                         ",
"                                                . . X X o O + # $ , 1 7 q w 4 2 1 ; = $ # @ + O o o X . . .   .                                       ",
"                                                . X X o O + $ > 1 w r a a s a t e 7 2 ; = % # + O o X X . . . . .                                     ",
"                                              . . . o O + # > 4 e p c A F S n c k p r 7 1 , : # @ O o o X X . .                                       ",
"                                            . . . X O + # - 4 e j A [ v.G.i.y.K H m d u w q 1 > % # + O o o X . . . .                                 ",
"                                          . . . X o O # = 1 w p c } Y.5XeX8X-XU.8.K m v a r w 2 ; % # @ + o o X . . . .                               ",
"                                        . . . X o O + % , 7 r l S l.6X`.z.D.oXeX>XN. .H n l p w 3 , = % @ O o o X . . .     .                         ",
"                                          . X X o + $ - 2 e a b [ /.6Xj.] +.3.V.@X3XXXk.K D v p e 8 < ; * @ @ o X X . . .                             ",
"                                    . . . . o o O # = < q t f H 8.3X|.;.W W T +.5.U.4X:XU.:.H b f t 8 3 , * @ @ o o X . . .                           ",
"                                      . . . o O + % ; < 9 a b ] D.8XN.E I Z I Z L { s.|.3X_.h.' v f t 9 4 , $ + O O o . . .                           ",
"                                      . . X o O + % < 7 e g V o.OX;Xo.T B M N N Z Z E 5.T.3X&Xb.K A z p w 4 1 & # O O X X . . .                       ",
"                                    . . X X o + # - 2 8 u v L v.3XY.{ R I N M M M M N J { c.OX6XB.[ D x p e 5 , : # O O o X . .   .                   ",
"                                  .   . X X O + % ; 7 e f b *.Q.3Xh.@.R I I Z M h h b M J { o.oX8XT.} S c j e 5 1 $ # O O o X . . . .                 ",
"                                .   . X X o O # = 1 w t f G s.,X#X..#.+.E J I M b h v b V J L 7.).eX(. .D c p e 4 ; $ @ O o o X . . .   .             ",
"                            .     . . X o O # $ , 7 t f m J Z.tX$X^.`.W.Z.5.E Z N h g b b b V J o.W.5X|. .D c a e 7 , % + + O X X . . .               ",
"                                . . . X o + # = < q p g G  .@XyXwX;X;X,X3XXXn.E Z M b v v v b V L 3.T.5X!.o.D v j e 3 ; % # + o X . . . .             ",
"                              .   . X X O + $ ; 3 w a m I v.4XXXz.s.d.s.Z.;X,Xa.T B M v v v v b V J -.T.wX!.o.H c p w 3 ; % # O o X . . .   .         ",
"                              . . . X o O # & < 7 r d V ] W.4Xz.#.W R R ] z.3X`.@.I N b v l v v b M J | T.qX!.:.D x p w 1 > % @ o o X . . .     .     ",
"                            .   . . X O + $ : 1 8 a g V 8.-X'.6.~ Q Y Y Q -./.<X5.T I M v v l l v v M J | R.8XT.[ m s r w 1 = # @ o X . . . . .       ",
"                            .   . X X O # & , 6 9 f b H B.3XS.@.Q U Y Y Y / Z.6XV.*.U C m v l l v v b C J | `.5XG.L m s r q , & @ O o X . . .         ",
"                              . X X o + # : 2 w t f V [ ).-Xq.R Y Y U Y Y ~ 9.1XoXo.W J C b v v x v g b V J 5._.3Xn.K b j e 5 , % @ O o X . .   .     ",
"                              . X X o + $ ; 6 r a b J h.4X[.,.^ ( Y ( Y ( ( =.Y.eXW.-.W R Z Z b b g g g b C E j.&X*Xp.J n a e 4 > % O O X X . .       ",
"                          . . . X o O # = 1 8 i f V ] U.6Xm.%.~ ) =.=./ ~ ) %.9.XX0X[.s.*.E T Z M b b g h M Z L c.,XXX5.G v p q , % # O o o X . .     ",
"                            . . X o O # > 2 e i h J o.1XoX7.1.1.f.S.E.H.x.4.<.2.9.[.6X<XR.z.6.E T J V v v g b C L S.6XR.*.m s e 1 ; % @ @ X X . .   . ",
"                        . . . . X O + $ ; 6 r a V E M.eXL.#.$.Z.:X3X:X,X3X.Xq.@.=.-.V.XX6X6X*X!.v.{ J M g v b M J  .`.eXV.L v p 8 1 - @ @ o X X . .   ",
"                        . . . X o O # = 1 w t f C -..X6Xe.-.V.6X#Xv.s.p.R.8XOX3.~ ~ +.;.j.P.oX5X8XU.*.V b g v b V T o.<X-X8.H l r 6 ; $ # O o o .   . ",
"                        . . X X o + $ - 3 w a v J s.6X`.4.9.OX-Xs.=.) ,.3.U.eXZ.W ^ R W +.#.3.9.=X<Xx.J V v v v b J L b.8X(.>.m a e 2 ; # + O o X . . ",
"                        . . X o O @ % ; 3 e z m ] D.5Xz.$.V.8XY.=.) ( ` %.f.;X|.+.R U U T W W +.l.:X].L C M v v b M J ] W.3XC.K n r 8 1 $ # O o X . . ",
"                    . . . . X O O @ = < 7 t v J o.#X X-.%.D.5XD.,.( ` ( %.6.#X@X*.U P P P Z I T 8.&X|.] T V b v g b C J s.-X=Xo.S s e 1 = # + o X . . ",
"                    . . . X o o @ # , 3 w a b E N.4XD.%.,.c.5X].;._ ( ( ~ s.,X|.E U I B B N Z T 5. X;X5.T Z M v g b M C E Z.3XR.[ l p 7 , * @ o X X . ",
"                  . .   . X o O @ & , 3 e d m -.|.3Xs.~ ~ 5.+X;Xj.=.) / *.Y.wXb.R I P Z N N B I @.].5Xk.E T C b h h b M T 5.'.3Xh.A k w 1 * @ O o X . ",
"                    . . . o o O # & 1 w p v H j.:X`.*.Q R W c.1X<XM.u.u.).5X|.-.R U P B N M N I E C.qXG.L T I V M M M N I E k.1X).[ c e 1 * @ O X X . ",
"                  . .   . o O @ # ; 4 t s m ] Y.1Xz.W R U R =.v.%XeX8X8X3X!.6.) _ Y I P Z M M Z R 6.@X;Xp.E T I N N N B I W ;.|.4Xy.c y 4 & @ o o X X ",
"                  . . . X X O @ = , q p x H 5.*X&X6.T U I U R W 6.V.Y.D.x.0.&.<.^ ^ R U P M M B I E v.,X*Xb.*.T I I I B U W -.U.wXy.z e 2 % @ O X X X ",
"                    . . . @ @ * , 3 e a m J b.5XY.=.T P B I I U R E E =.%.&.1.f.c.x.>.E T I B B I T =.n.:X,X[.s.W T I U R *.l.-X*Xy.z e 1 % @ o o X X ",
"                  . . X X o @ & < q t f V L W.>Xj.W I B N C Z Z P P U Q &.0.D.=X,X3XXXc.=.T I N B I R @.s.!.9X.X9.W R ) >.S.<X1Xv.F j 7 ; % @ O X X . ",
"            .     . . X o @ * > 1 w p v G p.-X(.:.R Z N N N B N P P Y Q =.A.3XOXL.W.-X=Xk.E T C N Z U R W *.H.3X`.5.} z.XX3XXXk.F z t 3 % @ O O X X X ",
"              . . . X o o @ * , 2 8 s V L B.3XV.E U Z B N B B B B P Y Q s.&XXXo.1.#.m.9X`.=.R Z N B I U Q ) *.I.wX`./.6X3XH. .D x t 8 1 % O O O X X X ",
"              . . X X o @ # : 1 7 u f J :.;XOX6.=.Y Y P P U I I P U Y R b.3XS.*.&.&.6.&X-X;.Q I I I U Q Q W  .i.rXyX4XE.p.G V x t 8 < - % @ o o X X X ",
"              . . X o o @ # , 2 e a b L z.eXY.=.~ U R T E T T T P U Y R z.1XT.{ 2.@.9.1X&X=.Q Q U R T E -.n..X6X2XQ.y.[ G b f t 9 < % % O O o o X X X ",
"              . . o o O # & 1 7 i d V { }.6Xj.%.~ =.x.Y.[.D.7.@.R U Y Q 6.XX3XM.7.9.E.qXY.,._ ! Q W >.n.XX6X<XW.h.*.K V v a e 7 < % % @ O X X . . X X ",
"            . . . o o O $ = 2 w a v J t.>X|.4.<.2.H.:X:X1X1XOXz.E U Y Y @.m.-X3X-X-X1X}.q.2.^ =.9.Z.XX,X-XY.h.[ K V v k p w 3 < % % @ O o X X X . . X ",
"            . . X X O + # ; 7 e s m { H.5Xc.<.w.C.3X@Xz.z.U.1XOX5.T Y U ~ ;.j.W.OX`.L.e.1.,.q.C.XX3X,XT.9.] H V v s a y q 2 , = % @ O o o X X X X X X ",
"          . . . X o O + $ 1 2 i f H ;.=X,X>.<.0. X,Xs.@.%.$.L.0XS.+.Q Y Y Q E *.*.3.3.#.9.K.*X8X=XD.5.{ H S v k p e w q 1 > $ # @ O O o X X X X X X X ",
"            . . X o + # - 1 w a m K c.0XP./ <.0.&X).;.<.<.%.e.0X(.@.Y Y Y Y Y ^ @.3.8.L.-X8X:XB. .L J V v s a y e 3 1 , : $ + O O O X X X X . . X X X ",
"            . . X o + $ ; 7 y d V | `.1Xa.) ( 0.&X@X3.&._ %.m.0XT.@.! Y Y Y Y Q 1.L.<X6XoXZ.6.E Z V b s a y w q 4 , & * @ @ O o o X X . X . . . . X X ",
"            . X X o + % < 8 i v J h.2X|.*.Q Q ,.{.5XS. .-.p.OX-Xx.%.` Y Y Y Y R q.1X<XM.3.] J C b f a y e w 2 1 > & * @ + o o X X X . . . . . . X X o ",
"          . . . o O + = 1 e a b E H.wXV.~ Q Q ) s.@X5XoX/.-X0XL.4.&.2.^ Q Y Q T s.3XI. .W T V v f i y w 0 1 , & * @ @ o o o X X . . . . . . . . . X o ",
"          . . X X O # ; 2 r x D :.@X@X6.R U Y Q / d.[.OXOXOXF.q.$.j.L.c.=._ Q W h.1XP.+.U M v s i y q 4 1 : * # @ @ @ o o X X .   . . . . . . . . X o ",
"          . . X o O $ ; 7 i v H v.:XH.E Q U Y U Q ~ ;.q.f.0.2.,.x.OXrX4XC.) ! E h.1XP.E Z b s i y q 4 , & * @ @ o o o X X . .       . . . .   . . X o ",
"          . . X o + % , w a b [ _.:Xf.R Y Y U P U U ^ ~ ^ ` 2.1.[.eXi.4X{.1.~ E h.1XU.L Z v a r q 4 , : * @ o @ o o X . . . .   .   .     . .   . X O ",
"          . . X o + = < w a S p.3X|.$.~ Q U R R U U ^ ^ ,.^ ,.6.OX#Xr.$X X1.^ +.j.6XP.L V l p w 4 , & @ @ @ @ X X X . .   .       .       .   . . X o ",
"            . X o + % < e s F N.3XN.$.%.,.) ~ U U Q ^ g.x.6.-.v.1X~...7X X2.&.W j.1XP.K V s r 6 4 : @ @ @ o o X X . . . .   .               . . . o o ",
"          . . X o + % 1 w z F U.2Xi.X.u.].L.*.Q Y Q =..X8X#X+X2X6Xz.X.4X X1._ W j.3XP.' m s r 6 , & @ @ @ o X X . . . .                       . X X o ",
"          . . . o O # , w a A N.8X#X~.#XyX2X6.Q ! Q ;.3XrX#X*X+XL.4.u.4X X1._ @.j.1XP.' b a 9 2 , & @ O O o X . . .       .                   . . X o ",
"          . . X o O @ : q p n -.~.:X1XoX6X7X5./ Q Q >.1X#Xu.q.0.@.%.p.>X X2._ W j.1XP.' n i w 2 : * @ o o X . . .                             . . X o ",
"            . X o o + * 1 w a A [ X.X.X.|.7X8.~ ! ) -.1XOX-.Q Q Q ! 5.;X X0.^ W 8.<XP.F v u 6 1 : @ O o X . . .   .                               . X ",
"            . . X o O # = 2 e s n G E *.[.eXu.,.<.%.8.6X`.+.U U Y Y :.2X X1.&.W j.1XP.F l r 6 ; = + O o X . .                                   . . X ",
"          . . . X X O @ % ; 7 e a v G E c.eXI.X.| 8.R.eXV.E P P P R :.>XOX5.+.] M.6XK.F s 9 < > # + X X . . .   .                                 . X ",
"          . . . . X o O # - ; 3 e a f G *.(.5XXX~.OXtX/.:.J M M M I { W.3XU.c.b.#X1Xu.n i 6 < $ # O X . .     .                                   . . ",
"                . X X O + # = ; 5 9 u x D :.].%X-XOXL.7.H b v g g M J s.`.4X3X9X1XS.' j e 2 = # + o X . . .                                         . ",
"              .   . X X O + # & , 5 e p z S K y.t.o.K m v s s a s d b J y.M.T.U.u.[ l y q , $ + O X . .                                           . . ",
"                . . . X o O O @ * > 1 w r a f x c n x s u r r r r u s l v A S F A j p q 1 & # O o X .   .                                             ",
"                    . . X o o @ # % > < 3 9 e t i r t t 8 8 8 8 8 w e t u a j a t w 6 1 = # + o X . . .                                           . . ",
"                    . . . X o o + @ # % = 1 < 7 2 2 2 2 2 1 < < 2 1 1 4 q 7 w q 1 1 ; $ # O o o X . .   .                                             ",
"                    . . . . X X o O + + # % : : > : : : > - = = : : ; > ; , , > = $ # + O o X X . .                                                   ",
"                          . . X X X o O + + @ + # # # # # # # # # # # # # # # @ # + O O o X X . .         .                                           ",
"                          . . . . . X X o o O O O O + O + O + + O + + + @ O + O O o o o X . . .   .                                                   "
};
