/* XPM */
static char *_c3514874ea94a42d94ea0648b1cb8f6Gcvr1K0u9PXXdT7C[] = {
/* columns rows colors chars-per-pixel */
"75 75 245 2 ",
"   c #07000E",
".  c #0B0114",
"X  c #080216",
"o  c #0C0119",
"O  c #120216",
"+  c #13031C",
"@  c #1B031D",
"#  c #18081E",
"$  c #25031E",
"%  c #0D0723",
"&  c #0C0A24",
"*  c #0D0E2C",
"=  c #150521",
"-  c #1C0422",
";  c #120B23",
":  c #1A0827",
">  c #120B2B",
",  c #0D122D",
"<  c #0E0E31",
"1  c #160E35",
"2  c #1C0E35",
"3  c #0E163A",
"4  c #131236",
"5  c #191136",
"6  c #15133B",
"7  c #1C133C",
"8  c #10183C",
"9  c #2C0525",
"0  c #210926",
"q  c #230A2B",
"w  c #28082A",
"e  c #370729",
"r  c #30112F",
"t  c #220D33",
"y  c #2D0D33",
"u  c #260F3A",
"i  c #310E35",
"p  c #380D38",
"a  c #23123D",
"s  c #2A123D",
"d  c #331139",
"f  c #470B2D",
"g  c #450C38",
"h  c #51103B",
"j  c #6A133E",
"k  c #0F1742",
"l  c #0F1843",
"z  c #1D1642",
"x  c #131844",
"c  c #1C1945",
"v  c #131D4C",
"b  c #1D1C4B",
"n  c #1B1D52",
"m  c #3A0F43",
"M  c #241544",
"N  c #2B1443",
"B  c #251748",
"V  c #2B164A",
"C  c #231A4C",
"Z  c #2B1A4C",
"A  c #34164B",
"S  c #381649",
"D  c #33194C",
"F  c #241E53",
"G  c #2C1D52",
"H  c #2A1E5A",
"J  c #341C54",
"K  c #3A1A53",
"L  c #341C58",
"P  c #3B1C5B",
"I  c #17214D",
"U  c #142355",
"Y  c #1C2353",
"T  c #13235A",
"R  c #1C265B",
"E  c #1C295D",
"W  c #222156",
"Q  c #2B2156",
"!  c #24245B",
"~  c #2B225B",
"^  c #23295F",
"/  c #33205B",
"(  c #3B1C61",
")  c #1C2A62",
"_  c #1D2C6B",
"`  c #1B3269",
"'  c #1E2E72",
"]  c #1D3473",
"[  c #1E317B",
"{  c #242562",
"}  c #272767",
"|  c #232C6D",
" . c #342266",
".. c #20306C",
"X. c #242C72",
"o. c #292D7A",
"O. c #382879",
"+. c #25327C",
"@. c #480E42",
"#. c #471345",
"$. c #45194D",
"%. c #541246",
"&. c #4A1756",
"*. c #421A55",
"=. c #431A5A",
"-. c #4D1859",
";. c #54195A",
":. c #5B1C5D",
">. c #6B1447",
",. c #771857",
"<. c #4A1E69",
"1. c #5B1B65",
"2. c #5E1E69",
"3. c #491F70",
"4. c #701D69",
"5. c #49226D",
"6. c #51216D",
"7. c #462477",
"8. c #542476",
"9. c #72277B",
"0. c #861B5A",
"q. c #861D66",
"w. c #951F66",
"e. c #97226B",
"r. c #8D297B",
"t. c #972676",
"y. c #A5277A",
"u. c #1E3681",
"i. c #372D81",
"p. c #293787",
"a. c #2D368B",
"s. c #36358B",
"d. c #373791",
"f. c #5A2C85",
"g. c #46378C",
"h. c #50338C",
"j. c #77368F",
"k. c #683A98",
"l. c #613CA1",
"z. c #1E438B",
"x. c #29498E",
"c. c #2A4698",
"v. c #344797",
"b. c #3156A8",
"n. c #3367A9",
"m. c #346AB5",
"M. c #5B449F",
"N. c #7A439A",
"B. c #564DAB",
"V. c #4858AD",
"C. c #5853AB",
"Z. c #495AB3",
"A. c #664AA7",
"S. c #7745A5",
"D. c #6358B5",
"F. c #4D67B8",
"G. c #5B6AC1",
"H. c #4A7CC7",
"J. c #497CC8",
"K. c #5273C4",
"L. c #5B77C9",
"P. c #6667C5",
"I. c #6778CC",
"U. c #8C328C",
"Y. c #893B97",
"T. c #823B9A",
"R. c #B52B87",
"E. c #C43199",
"W. c #D936B3",
"Q. c #924DAD",
"!. c #AA47A4",
"~. c #AC58B2",
"^. c #BE50B3",
"/. c #BE5DBD",
"(. c #C559BA",
"). c #DF35C0",
"_. c #E539D4",
"`. c #9A5BC3",
"'. c #9473CE",
"]. c #AE73CD",
"[. c #D44FC6",
"{. c #E554D4",
"}. c #C779D3",
"|. c #C979D4",
" X c #CC79D9",
".X c #DA72D1",
"XX c #E162CA",
"oX c #E769D9",
"OX c #E676DC",
"+X c #EB72E2",
"@X c #4D85D0",
"#X c #5C92D7",
"$X c #5F93DA",
"%X c #6E8BD8",
"&X c #738FDD",
"*X c #6293D9",
"=X c #7E9CE4",
"-X c #58B4E7",
";X c #79ADE8",
":X c #5FC4F2",
">X c #73CAF3",
",X c #6BDBFA",
"<X c #9B88DA",
"1X c #9892DE",
"2X c #AA89DC",
"3X c #B884D8",
"4X c #A391DE",
"5X c #879CE3",
"6X c #9898E4",
"7X c #A696E7",
"8X c #B695E8",
"9X c #97A7EB",
"0X c #90AFEC",
"qX c #98B8F2",
"wX c #A8A7EC",
"eX c #B9A6ED",
"rX c #B1B9F2",
"tX c #D184D9",
"yX c #C89AE9",
"uX c #D797E8",
"iX c #E988E5",
"pX c #E599EA",
"aX c #D7A6ED",
"sX c #CEACF1",
"dX c #CAB8F4",
"fX c #D9BAF7",
"gX c #E7AAEE",
"hX c #E7A7F2",
"jX c #E6A9F2",
"kX c #EDA8F4",
"lX c #F1A4F5",
"zX c #E4B6F7",
"xX c #90CEF6",
"cX c #A7C7F6",
"vX c #B8CAFA",
"bX c #AAD7F9",
"nX c #A5DFFE",
"mX c #B8D6FA",
"MX c #BAD9FC",
"NX c #A4E0FE",
"BX c #ABE1FA",
"VX c #C8CAFA",
"CX c #D6C6F9",
"ZX c #CFD4FA",
"AX c #E6C3F9",
/* pixels */
"o o o o . o o o o o o o . O . o . O o o . . o . . . . . . . . . .       O   O   X   X . . .   X . . . . . . . O . . . .     . . .   . . . . . .     . ",
"o o . o o o o . . o o . o . o . o . . . . o . . . o . o . o X . . . . o . O . . X X X X X   . . . . . . . . .     . O   . .   . . . .   .   .   . . . ",
"o o o o o o o . o . o o O . . . o . o . o o . . . o . . . . X . o % o % o % + + & X X X X X X X . . . . . . . . . . . . . . . . .   . . . . . .   . . ",
"o o o o . o o o o o o o o o . o . o . O . . . o . . . o . X % % & > < < < , < < , , , , & X . X .   . . . . . . . . . . .   O   .   .     .   . . .   ",
"o o o o o o o o o o o o o o . o o . o . o . . o . o . . o o & * 3 8 l l l l l l 8 8 l 3 , & X X . . . . . . . . . . . .   .   . . . . . . . . . . . . ",
"o o o o . o o o . o o o . . o . . . . o . . o . . . . o o % , 3 v T T T T T T T T T T U l , o X . . . . .   . . . . . . . .   . . .   . .   . . .   . ",
"o o o o o o o o o o o o . o . . . o o . O o o . . . . . o * < l ` x.m.m.m.m.m.m.n.n.n.` v , & X . . . . . . . . . . . . . . . . . .   .   . .   . .   ",
"o o o o o o . o o o o o o o o O o o o o o o o o o . o o o * 3 v z.-X,X,X,X,X,X,X,X,X-Xb.U 3 * X X . . X . . . . . . . . . . . . X . X . .   . .   . . ",
"o o o o o o o o o % % % % % % % & & % * % % % % % % & & & * 3 v z.:X,X-X-X-X-X-X-X,X,Xb.U 3 & & o & % o % o % o ; & X & & X & o o % o X X X X X   X   ",
"o o o o o = & > > , < * < < < < < < < < < < * , * * < * < < 3 v z.,X>Xm.z.z.z.z.b.:X,Xc.v 3 , * , , < < < * , * , , , , , , , , * , , , , & X X X .   ",
"o o o = & < < 3 8 x x x k v x l l l l l l l l l l l k l l k l U u.>XxXn.` ` ) ) x.;XxXb.U l l 3 l l l l l l l l 8 l 8 8 3 3 3 l 8 l l 8 3 , * & o X . ",
"o o o ; < 6 l v U U U T T T T T T T T T T T T T T T T T T T U T z.>XxXb.` ] ` ` x.>X,Xb.T T T U T T T T T T T T U U T T T T T T U T U I I l 3 & & X . ",
"o o % > 8 v U [ n.F.H.J.J.J.J.J.J.J.J.J.J.J.H.@XJ.J.J.J.J.J.@XF.@XxXxX#X@X@X@X@X@X>XxX#X@XH.@XH.J.J.J.J.J.J.J.H.J.J.J.J.@XJ.H.H.@XJ.J.m.z.T v 8 , X X ",
"% % * 6 v T b.;XxXnXnXnXnXnXnXnXNXNXNXNXNXNXNXNXNXNXNXNXNXNXnXNXNXnXnXnXnXnXnXNXNXBXBXNXNXNXNXNXNXNXnXNXNXNXNXNXNXnXNXNXnXnXnXnXNXNXNXxX;Xn.) x , , & ",
"% % < x I c.0XnXxX*X#X$X$X#X$X$X*X$X$X*X#X#X$X$X$X$X$X$X$X$X*X$X$X$X$X#X#X#X$X#X*X*X*X$X#X$X$X$X$X#X$X$X#X*X$X$X*X#X$X#X$X#X#X#X$X$X*X;XBXxXm.T 8 , , ",
"o % 1 v _ #XBX;Xb.u.[ [ ] [ ' [ ] ] ] ] ] ] ] ] ] ] ] ] ] ] ] ] ] ` ] ] ] ] ] ] ] ] ] ] ` ] ] ] ] ] ] ] ] ] ] ] ] ] ] ] ] ] ] ] ] ] ] x.*XmX;X[ I , & ",
"= * 3 v a.qXbXb.` E E E E ) ) ) ) E E ) ) E R R R R R R R R R R R R ) E E R R ) R R E E ) E ) ) E R R U R E ) ) E ) ) R ) ) ) ) E E ) ) c.xXbXv.U 4 ; ",
"= > 6 n c.xXqXc.E E ....] ..' X.' ' _ ] ) Y U I R | X.' ! I I I I Y ) X.' R R n I R ' ' | | ' | ' ) R I Y Y ) _ ] ] X.X.` ...._ ] _ ) ) p.=XbXF.I 8 ; ",
"% < z n c.cXqXc.^ +.b.F.K.K.K.K.K.K.K.Z.p.} Y R ' c.F.p._ Y I 7 I R o.b.Z.p.{ Y R ..v.K.K.K.H.K.F.p.) Y Y X.c.K.K.K.F.K.K.K.F.J.J.Z.+.{ u.=XbXn.I 8 , ",
"% > 6 n v.cXqXc.^ p.5XMXmXMXMXMXMXMXMXcXb.| Y ^ +.L.nX%X+.} C I W | v.0XxXv.| ! ^ p.%XbXMXMXZXMXqXb.| ! ^ [ I.vXMXMXMXMXMXBXZXMXMXqXv.) p.=XMXZ.I 4 ; ",
"% > 8 n v.cXqXd.{ p.0XmX=X&X&X&X&X&X&XI.s.} ^ ^ o.Z.bXqXv.{ Y n ! X.L.ZX5Xa.| ! ^ o.Z.%X5XMXqX&XL.x.{ ! ^ X.V.%X&X&X&XqXMX5X&X&X&XL.a.} +.=XmXV.C 8 ; ",
"% > 6 b x.cXqXd.^ a.0XvXb.o.X.o.o.o.u.o.} } W Q X.d.5XVXL.| R H ^ c.0XmXF.| ^ n n } X.+.Z.mX5Xa.| { ! I W } o.p.+.o.a.9XmXZ.+...X.X.} ^ p.=XZXF.I 4 ; ",
"= * 5 b v.rXqXd.! a.9XvXV.{ F W H R Y n H F b F ! X.F.mXqXd.~ ! X.G.mX9Xa.W n c b W ! } Z.vX5Xo.! W b c c W { ^ W ^ o.5XvXZ.) Y Y Y Y ^ +.5XmXV.I 6 ; ",
"+ > 5 c v.vXqXd.{ a.9XvXV.! n b c b c b b b c c F ~ d.5XVXI.X.{ d.9XVXF._ F b 7 x b W } V.VX5Xp.W c z 6 c C C Y n W p.5XVXZ.{ b c c c ! o.5XZXV.b 6 ; ",
"o > 7 b v.vXwXd.} a.9XVXB.n n z z z x 7 z z z b C H } D.VXwXd.| G.ZX9Xs.W F z 6 6 c H } Z.VX6Xo.! c 6 6 7 c c c F ! p.6XvXB.{ n c 8 C ! p.5XVXZ.b 4 ; ",
"= > 6 C g.rXwXd.^ s.9XVXV.H C z c z z 1 7 7 6 z C F } a.6XZXP.a.9XVXP.} F c 5 6 7 C H } Z.VX5Xi.W M 7 5 7 6 z c F ! i.5XVXZ.{ F c 7 I Q o.1XZXV.b 5 , ",
"= > 1 b g.vXeXd.H s.wXvXB.F F W F C B z 7 7 7 z c C H } P.VX7XI.VXwXg.H C z 7 1 z c H { C.VX6Xo.W c 6 5 1 5 7 c F ~ i.6XVXV.H b c 7 C Q o.1XvXC.c 4 ; ",
"% > 1 b g.rXwXd.{ a.wXdXB.{ }  . .H F B 7 7 7 7 c c F  .d.wXVXeXVXP.} F c 7 5 1 7 C F } D.VX1Xi.W c 6 5 5 5 7 c C W i.6XVXC.H b 7 7 C ! O.1XVXC.c 5 & ",
"= > 1 B g.rXwXd.H i.wXVXP.D.D.C.i. .H B z 7 7 7 7 M C H } P.ZXZXwXg.! C z 7 1 2 z C F  .C.VX4Xo.Q c 7 5 5 5 7 M C  .i.6XVXB.H C 7 a C Q O.1XCXC.c 1 ; ",
"+ > 1 B g.dX8Xd.~ i.8XZXCXZXVXvXD. . .C a 7 2 7 7 M B H ( h.rXAX'.} Q M 7 7 1 7 7 C F  .C.ZX1XO.F M 7 5 2 5 7 M C H i.4XCXB.~ C c M C Q O.1XCXC.B 5 ; ",
"o > 2 B g.rXeXg.~ g.7XCX4X<X<X'.g. .{ C z 7 2 a M M B H  .D.dXZX6Xi.W C M 7 2 7 a C F  .A.CX1XO.F M 7 2 5 5 7 B C H i.4XCXC.H C 7 7 C Q O.1XCXC.M 2 ; ",
"% : 2 B h.dXeXg.~ i.8XdXA.O. . .} ( H B M 7 a 7 M B G L i.1XCXdXdXD.( C B a 7 2 a B G  .C.CX4XO.G M t 5 2 7 7 B C L O.6XfXA.~ Z M 7 M Q O.<XCXA.M 2 : ",
"% = 2 B g.dX8Xg.Q g.8XdXM.~ Q Z V V V M M 7 2 a B Z L  .B.CXeX'.CX2X7.Q C M 7 2 M B G  .A.CX4X7.G M 7 5 2 2 a M V G i.2XfXA.{ Z 7 a C Q O.2XCXA.Z 5 # ",
"= : 7 V h.sXeXg.J i.8XfXM.J Z B B M M M t 2 M M V G / O.'.CX'.l.sXdXA.L G B a a a B G ( A.fX4XO.J B a t 2 2 7 B Z / O.2XfXA.L Z a a Z Q O.2XCXA.V t # ",
"o : t V h.sX8Xh./ 7.8XdXA.J Z s M M M M M 7 a M G L  .A.fXsXk. .'.fX'.O.J B M a a Z D  .A.CX2X7.J M a 5 2 2 a M Z J 7.8XfXA.L C a a M J O.2XfXA.N t + ",
"= > t M h.sXyXh./ 7.8XfXl.L Z N N N V V V N s N G L 7.'.AX'. ./ h.sXfXA.L D M a a Z D P A.fX2X7.Q M a t t 2 a M Z J O.2XfXA.J Z s a Z J 5.2XfXA.M 5 ; ",
"% > 2 N f.dXyXh./ 7.8XfXl.L J Z A A L L L A V V J ( k.sXsXl./ D 7.'.AX].7.J Z N N Z D ( S.fX2X7.J N s a u 7 a N D J 7.2XfXA.K N a a V J 7.2XzXA.M 2 = ",
"+ : 2 N f.sXyXf.P 8.8XfXl.( P P ( ( ( ( P K A V P 3.'.AX].5.J A P l.sXaXk.P D N Z D ( ( S.fX3X7.P K D N a u a N V P 7.3XfXS.J D s M V J 7.2XzXS.N 2 # ",
"o > 2 N f.sXyXh.P 8.yXfX`.S.S.S.S.S.S.k.5.( K J <.k.aXsXk.( N V K 3.'.AX'.6.S D D 5.f.S.`.fXyXS.k.5.K A s u a N D K 7.3XzXA.K Z s s D J 7.].zXS.N 2 # ",
"= : 2 N f.aXyXf.( 8.tXzXzXzXfXzXzXzXzXuXk.=.K J 3.`.zX].7.P d N A P N.aXaX8.K Z J 5.`.zXfXAXzXfXyXk.P A N s u s V P 5.3XzXN.K A s s Z P 8.].zXS.N 2 # ",
"% : t N f.aXyXf.K 5.Q.3X3X3X3X}.].3X].].f.*.K P 5.N.].j.( D s s N *.5.Q.`.8.*.S K 6.Q.3X3X].tX3X].8.P A d s s N A K <.Q.].f.K N s s V D 5.].fXS.s 5 # ",
"% : t u f.pXuXf.K P 6.5.6.6.<.3.3.f.1.<.<.$.S S *.<.8.<.K V N N N S P 8.3.<.*.J K *.<.8.8.<.6.6.<.P K N N N N N A D =.3.3.=.K A N s A K 8.3XzXQ.s r # ",
"+ : t N f.uXuXj.K D K K K K K K K S K K K K S K K K $.*.$.D D A D K K K K K K K D K K K K K K K K D D S K S D S S S K S K K S S A S D *.8.tXfXj.d 5 # ",
"= : t N <.}.zXQ.6.&.*.=.=.=.&.*.=.P P *.*.=.*.*.*.*.P P =.&.&.K *.=.=.=.=.=.*.*.&.=.=.*.*.*.*.=.*.*.*.=.=.*.=.=.*.*.&.*.&.=.=.*.*.P =.6.Q.jXyX8.r r # ",
"% - q u S N.pXgX].Y.T.T.T.T.T.T.T.T.T.T.Y.T.T.j.j.Q.j.T.T.T.T.T.T.T.T.T.T.T.T.T.j.T.N.T.T.T.T.j.j.T.T.T.T.T.T.j.T.T.T.T.T.T.T.Y.T.T.Y.~.uXzXQ.$.s 0 # ",
"o = : t i &.Q.pXkXkXjXjXjXhXhXjXjXhXjXjXjXjXjXkXgXkXhXhXhXjXjXjXjXgXjXkXgXkXjXjXjXkXkXkXhXjXjXgXjXkXkXjXjXhXjXkXjXhXhXjXjXjXjXjXjXjXkXzXjX/.6.s t # + ",
"o + - : u m $.j.~.}.|. X|.}.|.}.|.|.|.}.|.}.}.}.}. XgXpX X X X|.|.|.|.|.tX}.|.|. X|.|.|. X|.|. XuXgXtX|.|.|.|.|.|.|.|.|.|.|.}.}.}.}.}./.Y.*.d q 0 # . ",
"o o + : : t d p &.&.;.;.-.-.-.-.-.-.-.-.-.-.-.-.&.U.pX|.j.2.2.2.2.2.2.2.1.2.2.2.6.2.2.2.2.1.6.9./.gXQ.1.-.-.&.&.&.&.&.&.&.&.-.-.-.&.&.*.m r r ; # . . ",
"o o o = = : t u y d d i i i i i d i i d d d d y m j.pX}.4.=.$.$.$.$.$.$.$.$.$.$.$.$.$.$.$.#.$.1./.lXY.#.r r y i i i r r y i i i r d r r t 0 # # X .   ",
"o o o o + = - q q q q t t q : q q 0 q : q q 0 y d U.pX.X4.1.:.:.:.:.:.:.:.:.:.:.:.:.:.:.:.1.;.4.}.kX!.m y 0 0 : 0 0 q : 0 0 0 0 0 # 0 0 0 # # O . . . ",
"o o o o o o + = = = = = = = = = # + + # = # - w p j.pXuX/./././././././.(./.(././.(./././.[././. XlXY.@.y # # # + # + # # + + # # # # # . . X .   .   ",
"o o o o o o o o o o o + o O o o O o o o . o - t p r.iXkXlXlXlXlXlXkXkXkXlXlXlXlXkXgXkXlXkXjXkXlXlXlXY.g y # O . . o o o . o o . . .   . X .     . . . ",
"o o o o o o o . . o o . o o . o . . . . o O - y i :.U.!.!.!.!.!.^.iXiX^.!.!.!.!.!.tXiX(.!.!.!.!.!.!.4.r 0 # O . . . O     . . . . . . . .     . .     ",
"o o o o % o o o O . o o o o o o o . o o o o = 0 y p m @.#.#.@.g 4.tXiXr.&.%.%.;.4.iXiXt.g @.m @.g p p y 0 # o     .   . . . . .     . . . . . . . .   ",
"o o o o o o o o o o o o o o . o o o o o o o + - 0 y y y i e y p ,.tXiXr.%.#.h #.4.OXpXr.g y y r y r w 0 @ O . . . .   O . . .     # .   . . .   . .   ",
"% o o o o o o o o o . o o . o o o . o o o o o O @ - - - 0 0 w p 4.OXiXr.#.m g #.q..XiXr.p 9 0 - @ 0 @ @ O . .   .   . . . . . . . . . . .   . .   . # ",
"o o o o o o % o o . . o o . o o o o o o . o . . O O + + - - w e 4.OXiXt.#.m @.%.4.OXiXr.g w @ + O O O O .     .   .   . . . . . #     .   . .   . .   ",
"o o o o o o o o o o o o o o . o o . . o o . . . . o O o O - 9 p ,.OXiXt.%.@.p %.q..XiXt.g w @ o . . . O . . .   . . . . . .   .     O   . . .   .   O ",
"o o o % o o o o o o o o o o o o o o . o . . O o . . . o + - 9 p ,..XiXt.%.g g %.4.oX+Xr.p 9 @ O   . .   . . . . . . . . . . . . . . . .   . . .   . . ",
"o o o o o o o o . o o . o O . o O . o . . o o . o . . o O - 9 p ,.oXOXt.%.p @.%.q.XXiXt.f w - O   . . . . . . O . . . . . . . . . . .   . . . .   . . ",
"% o o o o o o o o o o o o o o o o . o . O . . o o o . o O - 9 p ,.oXOXt.%.g @.%.q.XX+Xt.f 9 @ O O . . . . . .   . . . . . .   O . . . .   O .   .   . ",
"o o o o o o o o o . o . o . . o o O . o o o . . o . o . O - 9 p 0.XX+Xt.%.g g %.q.XXOXt.p 9 $ O   O   . . . . .   . . . . . . . . .   . .   . . . . . ",
"o % o o o o o o o . o o o o o o o . o . . o . o . o . o O - 9 g ,.XXoXy.%.g g %.q.XX+Xe.f 9 @ O O . . .   . O   O . . . . . . . . . . . . . . .   .   ",
"o o o o o o o o o O o . o o . o o . . o . . o . O . . o o - 9 f ,.{.{.y.h h g %.,.{.+Xe.f 9 @ O . . . . . . . . . . . . . . .   . . . . .     . . . . ",
"o o o o o o o o o o . o o o o o . o . o o . o . . o . o O @ 9 e 0.{.{.y.>.h h %.w.{.oXe.f $ @ O . . .   . . . . . . . . .   . . . . . .   .   . . . . ",
"o o o o o o % o o . O o . o o . o . O . . O . o O . o . + @ 9 f >.(.{.E.>.>.%.,.R.{.[.0.f e @ O . . . . . . . . . . . . . O . . . .   . . .   .   .   ",
"o o o o o o X o o o o o o . o o o . . o o . o . o o . o O @ 9 e h R.{._.R.e.w.R.{.{.E.>.e $ O O . . . . .     O .     . . O .   . . . .   . . .   .   ",
"o o o % % o o o o o . o o o o o o . o . . o . . . . o . o + 0 9 f ,.E.{._._._._._.W.0.f e $ O O . .   O . . . . . . O . .   . . .     . . .   . . . . ",
"o o o o o o o o . o o . o . o o o . . o . O . o . o o . o O @ 9 e g ,.R.).)._.W.E.0.f f $ $ O     . . . O . . . . . . . . . .   . . .   . . .   .   . ",
"o o o o o o o o o o o o o o o o o o o . . o o O o . . o . o @ $ 9 e f j ,.w.w.0.>.f e 9 $ O O O O . . . .   . .   . . . . . . . .   . . .     O . . . ",
"o o o o o o o o . o . o o . o o o . o . . o . . . o o . . . . O $ 9 9 f f f f e f e $ $ O O     . . . . . O . . . . . . . . . .   . . .   . . . .   . ",
"X % o o o o o o o o o o o o o o . O . o o . o . O . . o . o . o O $ $ 0 9 e e 9 $ $ $ O O     O   .   . .   . . O   . . O   O     .   . . . .   .   . ",
"o o o o o o . o . o o . . o o o o o o . o . . o . o o . . . . . o O @ @ @ $ $ $ $ O O O . . . . O .   . .   . . . .   O . . . . O . .   .   . . . . . ",
"o o o o o o o o o o o o o o o . o . . o . o . . o . . . o . . . . . . O O O O O O O   . . .   . . . . . . . . . . . . . . . . .   . . . . . .   .     ",
"o % o o o . o o o o o . . o o o o . . . O o . o . . o . o . . o O . o     . . .   .   . . .   O . . . .   O . . . O .   .   . . . .   . .   .   .   O "
};
