/* XPM */
static char *result[] = {
/* columns rows colors chars-per-pixel */
"75 75 240 2 ",
"   c #000000",
".  c #090602",
"X  c #0C0B03",
"o  c #030209",
"O  c #0D0B09",
"+  c #110705",
"@  c #110E03",
"#  c #100E09",
"$  c #141104",
"%  c #1A1505",
"&  c #1D1905",
"*  c #161309",
"=  c #1C160A",
"-  c #1D190A",
";  c #231C05",
":  c #291D07",
">  c #231C0A",
",  c #262005",
"<  c #2B2305",
"1  c #2E2907",
"2  c #262109",
"3  c #2D250B",
"4  c #2E290A",
"5  c #312604",
"6  c #332905",
"7  c #3A2A04",
"8  c #322609",
"9  c #342C0B",
"0  c #392C0B",
"q  c #37310D",
"w  c #3B320B",
"e  c #3C3508",
"r  c #2F2910",
"t  c #352A11",
"y  c #3C3413",
"u  c #4B3806",
"i  c #42330C",
"p  c #443B0B",
"a  c #4C3C0C",
"s  c #523F0B",
"d  c #453C13",
"f  c #4A3813",
"g  c #4B4209",
"h  c #53430D",
"j  c #584909",
"k  c #5A4B0D",
"l  c #5D520C",
"z  c #4A4215",
"x  c #534615",
"c  c #594711",
"v  c #534913",
"b  c #5C4D13",
"n  c #5C4E1A",
"m  c #565210",
"M  c #5F5214",
"N  c #614C0A",
"B  c #694E0B",
"V  c #6B5706",
"C  c #65530A",
"Z  c #69550B",
"A  c #6C5C0E",
"S  c #725A0C",
"D  c #7B5E0B",
"F  c #644C11",
"G  c #665511",
"H  c #695515",
"J  c #6D5913",
"K  c #62561C",
"L  c #6E5E19",
"P  c #735B16",
"I  c #776509",
"U  c #73620C",
"Y  c #7B640C",
"T  c #7A690A",
"R  c #756312",
"E  c #7C6415",
"W  c #7B6A18",
"Q  c #695720",
"!  c #776421",
"~  c #776B21",
"^  c #7A6A23",
"/  c #7F7327",
"(  c #856606",
")  c #836709",
"_  c #836C0B",
"`  c #8B6C0B",
"'  c #926D04",
"]  c #916C0B",
"[  c #8B7005",
"{  c #93740A",
"}  c #977708",
"|  c #9A7509",
" . c #9B7A0B",
".. c #836A14",
"X. c #836916",
"o. c #8A6D15",
"O. c #867513",
"+. c #8A7214",
"@. c #887718",
"#. c #8B751C",
"$. c #967816",
"%. c #997B1B",
"&. c #AB7B03",
"*. c #A57808",
"=. c #B37E03",
"-. c #B97D09",
";. c #826B21",
":. c #857424",
">. c #897625",
",. c #867923",
"<. c #8A7927",
"1. c #907827",
"2. c #857734",
"3. c #9B860E",
"4. c #958117",
"5. c #9B8217",
"6. c #9D8A1A",
"7. c #A4850E",
"8. c #A88509",
"9. c #B48103",
"0. c #B98708",
"q. c #B9950B",
"w. c #A5851B",
"e. c #A88A19",
"r. c #B18E17",
"t. c #A6931E",
"y. c #AD931B",
"u. c #AE9C19",
"i. c #B79719",
"p. c #B4941A",
"a. c #B49B1B",
"s. c #BFA30C",
"d. c #BCA31A",
"f. c #8F8420",
"g. c #978926",
"h. c #9F9327",
"j. c #A68B24",
"k. c #AC9522",
"l. c #A59229",
"z. c #B79C26",
"x. c #BBA225",
"c. c #B9A42C",
"v. c #B4A033",
"b. c #C28403",
"n. c #C68D05",
"m. c #C9970A",
"M. c #D19906",
"N. c #C29A13",
"B. c #CEA50C",
"V. c #CDA90B",
"C. c #D2A40C",
"Z. c #D9A90B",
"A. c #DAB20D",
"S. c #C3A115",
"D. c #C5AC16",
"F. c #CBAA15",
"G. c #C6A31A",
"H. c #CAA519",
"J. c #C3AA19",
"K. c #D3AC14",
"L. c #D1A91A",
"P. c #C9B01D",
"I. c #D6B614",
"U. c #DEBC13",
"Y. c #D3B41A",
"T. c #DBB41A",
"R. c #D2B91A",
"E. c #DEBA1A",
"W. c #E1AC0C",
"Q. c #E4B90B",
"!. c #E3BC13",
"~. c #E7B915",
"^. c #E4BB1A",
"/. c #C19F26",
"(. c #C6A726",
"). c #C4AA20",
"_. c #D1AC22",
"`. c #CCB629",
"'. c #D6B828",
"]. c #C0A931",
"[. c #C9B235",
"{. c #D1B734",
"}. c #D4BA32",
"|. c #DCC316",
" X c #DEC21C",
".X c #EDC30D",
"XX c #EAC50F",
"oX c #F1C60E",
"OX c #F4CB0D",
"+X c #FBCD0D",
"@X c #FED604",
"#X c #FDDC04",
"$X c #F6D20E",
"%X c #FCD40C",
"&X c #F7DD0B",
"*X c #FDDC0B",
"=X c #E5C415",
"-X c #EBC413",
";X c #E6CB14",
":X c #ECCC13",
">X c #E5C41B",
",X c #E9CB1C",
"<X c #F2C612",
"1X c #F3CD13",
"2X c #FCCC11",
"3X c #F4CC1C",
"4X c #EDD119",
"5X c #F4D313",
"6X c #FAD412",
"7X c #FDDC13",
"8X c #F3D51D",
"9X c #F6DB19",
"0X c #FBDD1B",
"qX c #F7E206",
"wX c #FDE204",
"eX c #FDE804",
"rX c #FDE30B",
"tX c #FDE80B",
"yX c #FDE413",
"uX c #FDE41B",
"iX c #FDE81B",
"pX c #DEC52A",
"aX c #DEC432",
"sX c #E4C924",
"dX c #E3CB2C",
"fX c #E8C928",
"gX c #ECD224",
"hX c #E8D22B",
"jX c #F4D623",
"kX c #F5DB25",
"lX c #F9DE23",
"zX c #F3D529",
"xX c #F3D92B",
"cX c #F8DF2A",
"vX c #EED531",
"bX c #F5E024",
"nX c #FCE423",
"mX c #FCE822",
"MX c #FCE32A",
"NX c #FCE431",
/* pixels */
"                                                                                                                                                      ",
"                                                                                                                                                      ",
"                                                                                                                                                      ",
"                                                                                                                                                      ",
"                                                                  . $ ; < < 6 6 6 6 < < , : & $                                                       ",
"                                                          X 2 p j W 4.t.z.x.).J.x.a.y.7.{ T J k a 0 *                                                 ",
"                                                  . X 3 x :.z.}.hXxXMXMXMXMXMXMXNXNXMXkX8X,XR.N.7.+.U b 0 %                                           ",
"                                          X * & % i ^ c.dXkXMXuXyXiXyXyXiXnXuXuXnXnXmXmXmXmXnXMX9X=XK.0.| D a ; .                                     ",
"                                      . * < : d 1.`.zXyXrXrXyXrXwXwXwXwXrXrXrXrXqXrXyXyXyXiXuXiXuXuXMXjX^.N.*.) h %                                   ",
"                                    @ ; , y #.}.MXrXrXwXrXwX#XqX#X#X#X@X#X@X@X#X#X#X#XwX#XrXrXrXtXiXnXmXlXzX^.q.*.R i @                               ",
"                                  . 2 q L `.jXrXwXrXrXwX#X*X@X@X#X@X%X6X<X.XoXoXoX1X%X@X*X@X@X#XrXrXyXuXnXnXnX9XK.8.X.n &                             ",
"                                  * f l.hXtXqXqX#X*X@X#X#X@X$XXXF.q.$.E F s u u N D $.r.H.=X6X@X#X#XwXrXiXtXtXyXnX>X0.` G 4 .                         ",
"                            . X > K {.0X*XrXwXqX#X#X@X5XU.r.W h & $ @ X .       . X @ $ % a E r.!.$X#X#XwXqXtXyXrXiXjXS.{ U w X                       ",
"                          . 2 9 ^ aX7XwXwXwX*XwX*X+XK.+.u % X X X X @ O X . . . . X @ @ . @ . ; p ` K.2X@X#X#XqXyXrXrX0XK. .Y p $                     ",
"                        . > q >.fX*XrXwX#X#X@X%XR.X.9 # X . . . .                     o . . . X . @ 8 ;.K.+X#X#XtXtXwXrX0XT. .T g X                   ",
"                        X q >.gXyX#X&XwX@X%X:X5.e O X X                                         o . + # 9 +.!.*X#XrXyXqXtXuXE. .T g .                 ",
"                        3 >.gX#X#X#X#X#X%XY.A % @ X o o                                           o   X X . k G.%XwXyXyXrXeXyXY.} T e .               ",
"                      & W fXrX*X#XwX#X6Xi.6 $ .                                                         . . X 8 w.5X#XrXtXeXwX7XF.{ W 9 .             ",
"                    @ x }.rX#XwXwX#X5Xt.< . .     o                                               .     o   . X * $.OX*XtXrXyXeX&Xm.[ A ,             ",
"                  X p x.7X#XqXqX#X$Xj.4 @ .                                                                   . . & #.1X#XtXtXwXeX5X8._ v $           ",
"                . < #.9X#XwX#X#X&Xu.< # o                                                                       . O & $.5XrXeXeXwXeXU. .T e .         ",
"            . @ ; b  X*X#XwX#X*XJ.< X . o   o o                                                                 o . @ * y.*XeXeXeXwX7Xq.[ U <         ",
"            @ & ; k.6X#XwX#X#X Xk X .     o                                                                       . O $ a -XeXeXeXeXwX:X8.T g .       ",
"            % % n ,X#XwXwX#X5XO.* X o                                                                     o   X @ . O - X.5XeXwXeXwXwXtXs.T m $       ",
"          @ % ; l.*X#X@X#X*XS.& X                                                                 o o o   X @ O * q ! ].jXrXwXwXwXwXwXrXR.U v @       ",
"        . & $ x fX#X#X#X#X;XM X .                                                                   . X X @ 3 n j.aXlXyXwXwXwXwXwXtXqXyXD.j 8 .       ",
"        X & = %.7X#X#X#X*Xa.& O   o                                                           . O $ O # y >.`.gXiXrXwXwXwXwXwXwXrXwXuX>X_ ; .         ",
"        X @ 3 '.*X#X#X#X,Xm X . o                                                         . X @ . r Q z.aXlXwXwXwXwXwXwXwXwX#XwX5X=Xk.G $             ",
"        $ X b 3X#X#X#X#Xd.& X .                                             o     o . X o X - f 1.'.jXyXwXwXwXwXwXwXwXwX*X7X:XP.O.g %                 ",
"      . % @ j.6X#X#X#X7XO.. .                                                   . $ X X - L k.dXlX*XwX#XwXwXwXwXwXwXwX6X Xu.U e X                     ",
"      . @ & ).@X#X@X*X;Xv X .                                             . O @ . $ d %.`.9XyXwXwXwX#XrX#X#XwXwX*X,Xd.@.k 9 & X .                     ",
"      . X f >X#X#X@X@XD.> .                                           . X . O 3 M t.sX7XrX#XwX#X#XwX#X#XwX*X5XR.%.x 2 * $ X .                         ",
"      X + P 3X#X#X@X*Xy.* X                                   o   . @ . X 0 :.(.8X7XrX#X#XwXwX#XwX#X#X0X=Xd.L 3 $ X @ X .                             ",
"      + X o.2X#X#X#X6XO.X .                               o . . . X % y g.pX0XwXwX@X#X*X#X#X@X#X#X5XY.<.g * X . X . .                                 ",
"      . . %.%X#X@X#X:Xk . .                               # X X > n j.fX7XrX#X#X#XwXqX#X#X#X$X,Xi.J 9 @ O O .                                         ",
"        + e.@X#X@X#X;Xe   o                           o X @ 2 ! x.gX7XwX#X#XwX#X#XwX#X#X$XR.4.p & X @ X .     o                                       ",
"      . = z.%X@X#X#X|.1 X                               = ^ {.jX*XwXwXrXqXwX#X#X#X#X.Xd.U 3 X X O . . o o o o                                         ",
"      X > /.%X@X@X#XI.1 @                           . * >.jX*X#XwX#X#X#X#X#XwX#X$XV._ & O X X .   o .     o                   .                       ",
"      @ > (.@X#X#X@XR.1 X o                         @ 8 '.#XwXqX#XwXwX#X#XwXwX#XB.( l 1 $ .                                       .                   ",
"      @ > /.@X#X@XrXR.1 X                           @ > (.*XqX#X#XwXwXwXwXwXwX#XZ.| ) U j 1 @   o o                                 .                 ",
"      @ % z.@X@X#X#X X9 X o                         . X F T.$X*X#X#XwXwXwXwXrXwX*XQ.M.&.' I k e % . o .                         .                     ",
"      X . w.@X@X@X#X>Xq .                             . @ 9 3.K.%X#X#X#XwXwXwX#XwXrX%X.XC.=.' ( V p , . . .                           .               ",
"      X X $.+X@X#X#X:Xa                                 . . @ 0 o._.6X@XwX#XwXwXwXwXwXrX*X<XC.0.*.' D h 3 @         o                 .               ",
"      . X _ +X@X#X#X5XR . .                                 X @ @ 9 ..K.OX@X#XwXqXqXwXwXwXwX7X1XZ.n.=.| ` V e % X   .   o     .                       ",
"      . @ J <X@X#X#X$X6.$ X                                     O X @ 8 ..F.1X@X#XwXwXwXwXwXwXeXwX%X~.M.0.&.| D g : X     o o                         ",
"      . . i ^.@X#X@X&XD.* X                                     o o . X X : P i.-X*XwXwXwXwXrXwXwXwXrX&X-XZ.b.=.*.` C 8 % . .                         ",
"        . % G.@X#X@X#X|.y X .                                 o o   o o X X X : k e.XX6X#X#X#XwXrXwXwXeXrX*XoXW.n.9.&. .D s : . .   .                 ",
"      o + @ j.2X@X#X#X9XW X .   o                                         . . . . * p %.U.%X#X#XwXwXeXwXeXeXwXrX%XQ.M.b.-.*.] B 0 $ .                 ",
"        X . F <X#X@X@XrXu.$ X                                                     . @ @ i o.D.5X*XwXwXrXrXrXeXtXtXrX7X.XC.n.b.9.*.Y a : @             ",
"          X 3 I.@X@X#X#X;Xv O .   o o                                             o + @ . X 8 G d.-X*X#XwXrXrXtXeXeXrXtX*X1XZ.M.b.-.&.] F 2 .         ",
"          @ $ %.%X@X#X#XrX6.$ @ .                                                       . . . . ; k r.E.6X@XwXwXrXwXeXeXeXeXyX1X!.M.b.9.8.P <         ",
"          . @ x !.#X@X#X*XpXz @ o                                                   o o       . @ X * a $.T.5X*XwXwXwXeXwXtXeXtXtX&X.XM.&.` d .       ",
"            X - p.@X#X@X#X7Xk.$ X o                                                               . X . + t R G.:X*XrXwXrXtXeXeXwXtXtX=X3.T z .       ",
"            . X H :X@X#X#XwXgXM $ X                                                                   . o X @ , G p.>X*XwXwXeXeXeXtXwXyX8.V q .       ",
"              O @ i.%X@XwX@X*X`.q X .                                                                   . o X @ X % h 4.;XwXeXeXwXwXwXqX3.p %         ",
"              . + c ^.@X#X*X#X0Xg.* X                                                                 o o     o X . X + $.*XeXwXwXwXtX|.V ; .         ",
"                # + $.+X@X#X#XqXkX,.* O   o o                                                                   . o * - j.rXwXwXwXwX5X7.0 .           ",
"                  @ 9 N.@X#X#X#XrXhXW - #                                                                 .     o + - @.8XwXwXwXwXrXD.g X             ",
"                  . X a !.%X#X#X#XwXdX^ - O                                                               o o o X & X.4XwXwXwXwX#X=XS $               ",
"                    X . E -X#X@X*X#XrXhX/ * $ .                                                             . @ = :.4XrXwXwXqXwX4X{ ;                 ",
"                      X > %.2X@X#X@X#XrXvXg.> $ .                                                       . X @ > 1.8XwXwX#X#X#X$X6.8 .                 ",
"                      . . 5 w.OX@X#X#XqXrXbXc.x @ X X .   o                                     o   . X X # x z.0XwX#X#X#X#X5Xy.e                     ",
"                        . @ 8 r.+X@X#X#XwXqXuXpX<.r X $ X .   o o o                       o o     X @ X 9 ,.pXiXwXwXwX#X@X$Xu.e .                     ",
"                          . + 8 %.oX@X#X@X*XqXrXMX`.~ 4 $ X X X .   o                 o o X . O $ $ r ~ `.nXwXwX#XwXwXwX:Xt.w                         ",
"                              $ 8 o.~.%X@X#X#XqXrXyXcX{.<.z - O O . . @ @ X @ @ X X X X   O # > f >.{.kXyXwXwXwXwX#X*XsX4.9 .                         ",
"                              . $ ; J L.%X@X#X@X#X*XrXyXMXdXc.<.K 4 $ * $ @ @ @ @ $ $ $ 3 n 2.v.dXMXrXwXwXqX#X#X#X%XE.E &                             ",
"                                    + a w.-X@X@X@X@XqXqXwXwXiXmXxXpX[.z.h.g.f.f.g.l.v.c.aXzXnXyXrXwXwXwX#XqX#X*X1Xa.v X                               ",
"                                      . : J N.<X%X#X@XqX#X#XwXwXqXyXuXiXiXiXbXuXiXiXmXmXyXwXwX#XwX*XwX#X#XwX5X_.W < .                                 ",
"                                          @ 0 ..H.oX@X#X#X#X@X#X#XqXwXwXwXwXwX#XeXwX#XwX#XwXwXwX#X@X#X*X6XK.@.p X                                     ",
"                                              $ 8 P r.^.6X%X@X@X@X#X@X#X#X#X#X#XwX#X#X#X#X#X#X#X@X@X,XS...e X                                         ",
"                                                . . : c ..N.~.oX+X%X@X@X@X@X#X@X#X@X#X@X@X@XOX~.F.e.A 1 .                                             ",
"                                                        @ 8 u D *.N.C.A.~.!.!.-XQ.Q.U.K.N.7.T j 0 % .                                                 ",
"                                                              . % 7 u h j B C Z C k j u 7 % .                                                         ",
"                                                                                                                                                      ",
"                                                                                                                                                      "
};
