/* XPM */
static char *result[] = {
/* columns rows colors chars-per-pixel */
"75 75 236 2 ",
"   c #000000",
".  c #090602",
"X  c #0C0B03",
"o  c #030209",
"O  c #0D0B09",
"+  c #110705",
"@  c #110E03",
"#  c #100E09",
"$  c #141104",
"%  c #1A1505",
"&  c #1D1905",
"*  c #161309",
"=  c #1C160A",
"-  c #1D190A",
";  c #231C05",
":  c #291D07",
">  c #231C0A",
",  c #262005",
"<  c #2B2305",
"1  c #2E2907",
"2  c #262109",
"3  c #2D250B",
"4  c #2E290A",
"5  c #312604",
"6  c #332905",
"7  c #3A2A04",
"8  c #322609",
"9  c #342C0B",
"0  c #392C0B",
"q  c #37310D",
"w  c #3B320B",
"e  c #3C3508",
"r  c #352A11",
"t  c #3C3413",
"y  c #4B3806",
"u  c #42330C",
"i  c #443B0B",
"p  c #4C3C0C",
"a  c #523F0B",
"s  c #453C13",
"d  c #4A3813",
"f  c #4B4209",
"g  c #53430D",
"h  c #584909",
"j  c #5A4B0D",
"k  c #5D520C",
"l  c #4A4215",
"z  c #534615",
"x  c #594711",
"c  c #534913",
"v  c #5C4D13",
"b  c #5C4E1A",
"n  c #565210",
"m  c #5F5214",
"M  c #614C0A",
"N  c #6B5706",
"B  c #65530A",
"V  c #69550B",
"C  c #6C5C0E",
"Z  c #725A0C",
"A  c #7B5E0B",
"S  c #644C11",
"D  c #665511",
"F  c #695515",
"G  c #6D5913",
"H  c #62561C",
"J  c #6E5E19",
"K  c #735B16",
"L  c #776509",
"P  c #73620C",
"I  c #7B640C",
"U  c #7A690A",
"Y  c #756312",
"T  c #7C6415",
"R  c #7B6A18",
"E  c #695720",
"W  c #776421",
"Q  c #776B21",
"!  c #7A6A23",
"~  c #7F7327",
"^  c #856606",
"/  c #836709",
"(  c #8B6C0B",
")  c #926D04",
"_  c #916C0B",
"`  c #8B7005",
"'  c #93740A",
"]  c #977708",
"[  c #9A7509",
"{  c #9B7A0B",
"}  c #836A14",
"|  c #836916",
" . c #8A6D15",
".. c #867513",
"X. c #8A7214",
"o. c #887718",
"O. c #8B751C",
"+. c #967816",
"@. c #997B1B",
"#. c #AB7B03",
"$. c #A57808",
"%. c #B37E03",
"&. c #B97D09",
"*. c #826B21",
"=. c #857424",
"-. c #897625",
";. c #867923",
":. c #8A7927",
">. c #907827",
",. c #857734",
"<. c #9B860E",
"1. c #958117",
"2. c #9B8217",
"3. c #998319",
"4. c #9D8A1A",
"5. c #A4850E",
"6. c #A88509",
"7. c #B48103",
"8. c #B98708",
"9. c #B9950B",
"0. c #A5851B",
"q. c #A88A19",
"w. c #B18E17",
"e. c #A6931E",
"r. c #AD931B",
"t. c #AE9C19",
"y. c #B79719",
"u. c #B4941A",
"i. c #B49B1B",
"p. c #BFA30C",
"a. c #BCA31A",
"s. c #8F8420",
"d. c #978926",
"f. c #9F9327",
"g. c #A68B24",
"h. c #AC9522",
"j. c #A59229",
"k. c #B79C26",
"l. c #BBA225",
"z. c #B5A02E",
"x. c #B9A42C",
"c. c #B4A033",
"v. c #C28403",
"b. c #C68D05",
"n. c #C9970A",
"m. c #D19906",
"M. c #C29A13",
"N. c #CEA50C",
"B. c #CDA90B",
"V. c #D2A40C",
"C. c #D9A90B",
"Z. c #DAB20D",
"A. c #C3A115",
"S. c #C5AC16",
"D. c #CBAA15",
"F. c #C6A31A",
"G. c #CAA519",
"H. c #C3AA19",
"J. c #D3AC14",
"K. c #D1A91A",
"L. c #D6B614",
"P. c #DEBC13",
"I. c #D3B41A",
"U. c #DBB41A",
"Y. c #D2B91A",
"T. c #DEBA1A",
"R. c #E1AC0C",
"E. c #E4B90B",
"W. c #E3BC13",
"Q. c #E7B915",
"!. c #E4BB1A",
"~. c #C19F26",
"^. c #C6A726",
"/. c #D1AC22",
"(. c #CCB629",
"). c #D6B828",
"_. c #C0A931",
"`. c #C9B235",
"'. c #D1B734",
"]. c #D4BA32",
"[. c #DCC316",
"{. c #DEC21C",
"}. c #EDC30D",
"|. c #EAC50F",
" X c #F1C60E",
".X c #F4CB0D",
"XX c #FBCD0D",
"oX c #FED604",
"OX c #FDDC04",
"+X c #F6D20E",
"@X c #FCD40C",
"#X c #F7DD0B",
"$X c #FDDC0B",
"%X c #E5C415",
"&X c #EBC413",
"*X c #E6CB14",
"=X c #ECCC13",
"-X c #E5C41B",
";X c #E9CB1C",
":X c #F2C612",
">X c #F3CD13",
",X c #FCCC11",
"<X c #F4CC1C",
"1X c #EDD119",
"2X c #F4D313",
"3X c #FAD412",
"4X c #FDDC13",
"5X c #F3D51D",
"6X c #F6DB19",
"7X c #FBDD1B",
"8X c #F7E206",
"9X c #FDE204",
"0X c #FDE804",
"qX c #FDE30B",
"wX c #FDE80B",
"eX c #FDE413",
"rX c #FDE41B",
"tX c #FDE81B",
"yX c #DEC52A",
"uX c #DEC432",
"iX c #E4C924",
"pX c #E3CB2C",
"aX c #E8C928",
"sX c #ECD224",
"dX c #E8D22B",
"fX c #F4D623",
"gX c #F5DB25",
"hX c #F9DE23",
"jX c #F3D529",
"kX c #F3D92B",
"lX c #F8DF2A",
"zX c #F5E024",
"xX c #FCE423",
"cX c #FCE822",
"vX c #FCE32A",
"bX c #FCE431",
/* pixels */
"                                                                                                                                                      ",
"                                                                                                                                                      ",
"                                                                                                                                                      ",
"                                            . $ $ .                                                   . . .                                           ",
"                                        . , f n c 4 .                                             . , s l e % .                                       ",
"                                      @ e P U L P h ;                                             : Z ( L N i ; .                                     ",
"                                . . , h U ` 6.p.Y.S./ @                                         @ S 6.$.<.6.<.C 7 X                                   ",
"                                . q C ^ ] A.=XqXqXqX-Xm                             .         . , _ 8.m.|.#X#X{.<.p $                                 ",
"                              . t Y ` 6.P.qX9X9XqX8XeXh.%                       .           . . a #.v.|.wX9X9X9X4XS.C ;                               ",
"                            X f U ) A.+XwX9X0X0X9XqXqX-Xf                   .               . @ I 7.m.#XwXqX0X9X9X9X%X+.6                             ",
"                          $ f U ' J.#X9X9X0XwX9X9X9XqX#X..$ .                               . 0 $.v.E.eX0X0X9X0X9X9XOX1X0.e .                         ",
"                        . i U { U.eX0XwX9X0X0X0X9X9X9XqXS.e X             .         .       O V &.n.2X0X0X9X0X0X9X0X9X9X2Xr.w                         ",
"                      . w I { T.eX9XqXwX0X0X0X0X9X9X9X9X=XY & .                       o   o : _ v.C.qX0X0X0X0X9X9X9X9XOX9X+Xt.q .                     ",
"                      4 Y { U.rX8XwXqXqX9X4X&X2X9X9X9XOX3Xt.9 X                         . . p $.b.<XwXwXwX9X9X$XqX9X9XOXOXOX2Xq.9 .                   ",
"                    & D ' J.7XqXwXqXwX9X2Xu.g R 5X9X9X9XqX{.x $ .     .                   $ I &.C.qX0X0XqXOX*X@.g.6X9X9X9XOXOX=X+.&                   ",
"                  @ c ` A.7XqXqXeXqX$X>X+.% $ - _.eX9X9X9X2Xo.% . .                   .   9 [ v.E.qX9X0X9X$X1.X = O.1X9X9X9XOX9X;XR X                 ",
"                  u  .9.<XqXwXeXqXOX=Xo.; X # O W gXqX9X9XOXa.4 X .                   . . B #.m.3XwXwX9X$X-Xa X * - R 1X9X9XOXOXOXU.z .               ",
"                = A 6.-XrXwXqXqXOX5X+.% X .   X q uXqX9XOX9X;Xc X .                     : ^ %.E.qX0X0X9X$Xu.= X   @ & =.fX9X9X9XOX$Xi.1               ",
"              . z $.J.xXeXeXwXOX+X0.% X o   o @ * g.eX9X9X9X#X@.$ X                   . f #.m.+XwX0X0XOX=XD X X o o X % >.7X9XOXOXOX=XR X             ",
"              ; / 9.5XeXeX0X9XoXA.6 . .       . + b jX0X9X9X9XY.4 X                 . & Z %.R.4X0XwX9X$XG., $ o     . $ > k.eX9X9X9XqX/.i             ",
"              a $.T.vXeXqX9XOXW.x X .         . @ 3 ^.qX9X9X9X2XJ . .   o           . q ) b. X0X0XqX9X2XT X .         . $ z yXqX9XOXOX2Xo..           ",
"            % A n.fXrXwX9XOXXXX.X O             X @ :.hX9X9XOX$Xa.% O   o         . @ B #.C.$X9XqXqXOXJ.r O o       o   X @ ;.xXqX9XOXOXL.e           ",
"            9 [ T.vXrXtXOX$XK.8 X .               X t pX9X9XOX9X*Xl X . o           1 ( 8. XqXwXqX9X3X+.+ o   o       . . X 9 (.eX9X9XOX2X} .         ",
"            b 8.fXcXrXqXOX>X*.+ O               o . # k.eX9X$X9X4X>.X O o       . . h [ m.#X9X9XqX9X-Xd X . o o           O X ! gX9XOXOX$XA.8         ",
"          % Y B.vXcXqX9XOXJ.8 @                 o O X E fXOX$XOXOXI.9 @ o     .   2 P 7.Q.wX9X0X9XoXw.$ X                 o $ 3 '.qX9X9XOX&XG .       ",
"          0 X.%XrXtXqXOX+X( @ . o                   O 3 ).qX9X9XOX5XG X .       . y _ b.+X9X0X9XOX=Xj X .                   X $ -.cX9X$X$X@X5.&       ",
"          p 5.5XtXeXqXOXP.y X     o                 O # >.xXOX9XOX#Xi.& O o   o & N #.C.OX9XqX9X$Xk.; X                   o . $ d pX0XOXOXOXG.0       ",
"        @ v A.xXtXqX$XoXw.; .                       o @ d pX9XOXOXOX%Xi X   .   0 / 7.>X9XwX9XOX2XD . .                       O > z.tXOX9XOXQ.h       ",
"        & G Y.cXtXeX$X3XT . X                         X & h.eXOX9XOX#X+.X X   $ k ) V.$X0XqX9XOXD.8 . .                       O O ,.vX9X9XOX.X/ .     ",
"        ; I ;XcXtXqXOXW.a X .                         . X J 6X9XOXOXOXY.4 X . 4 L 7.:X9X9X9XOX@X( X .                         o O b dX0X9XOXoX5.%     ",
"        < ] 5XtXeX9XOXG.% O                             o - (.qXOXOXOX+XP O * h ) m.$X9X9X9XOXU.u X .                         o o < uXqXOXOXoXM.7     ",
"        < <.gXcXqXOX@Xw.@ @ o                           X $ O.4X9X#XOXOXa.& 1 C %.&X9X9X9XOX3X3.@ #   o                       o . * `.tXOXOXOXJ.y     ",
"        < u.vXcXeXOXXX+.@ @                             . X i iXqXOX9XOX=X/ B / m.$X8X9X9X9X%Xp X O .                           X % c.tXOXOXOXL.h     ",
"        5 k.bXcXqXOXXXA X X                               $ = e.4XOX9XOXOXB.^ [ E.9X9X8XOX$Xq.% X                               X $ f.tX9XOX$XE.M     ",
"        5 a.bXcX9XOX XM . .                               . . m 5X9XOX9XOX.XN.C.$X8X9XOXOX=Xx .                                 $ @ s.rX9XOXOXE.B     ",
"        8 H.vXrXqXOX:Xy   .                             o   X 4 ^.qXOXOXOXOXOXOXOX9X9XOXOXy.; .                                 X X s.rXOXOXoX|.V     ",
"        7 l.vXrXqXOX}.y . .                                 O # =.6XOX9XOX9X9X9XOX9XOXOX>XK X X                                 X $ s.rXOXOXoX%XB     ",
"        5 l.vXtXqX$X}.p   .                                 o . 9 yX$X9X9XOX9X9X0X9X9X$XD.: @                                   X $ d.tX9XOXoXQ.M     ",
"        < i.vXeXOXOX.XM . .                                   . X d.4XOX9XOXOX9XqXOXOX>X| X O                                   X $ j.eX9XOXoXE.j     ",
"        ; e.vXtX9XOX>XT X O                                   . . s aX$XOXOX9X9X0XOXOXD.8 @ o                                   X * c.tXOXOXoXZ.a     ",
"        $ 1.vXeX9XOX@X+.$ X                                     @ % g.4X9X9XOX9XOXOX+X} @ . o                                   . * `.tX8XOXoXV.y     ",
"        . R kXeXqXOXoX9.$ $                                       @ b sXOX9X9X9XOXOX/.0 X o                                   o . 4 uXwXOXOXXXM.7     ",
"          h pXtX0XOXOXD.& X .                                     X ; l.$X9XOXOXOX+X .@ X                                 o o . O H gX9XOX#X.X6.&     ",
"          i ].tX9XOXoXW.g X .                                     . X W fX9X9XqX$XJ.r @ o   o                                 . O :.xX9XOXoX XA .     ",
"          2 k.cX4XqXOX+X} X .                                     o X 3 '.$X9X#X@X{ @ @                                     o X - x.tXOXOXoXQ.p       ",
"          @ =.lXqX9X$XoXw.% .                                     o X @ ! fXOX$XU.0 .                                       . @ z pX0XOXoXXXM.8       ",
"            z pXqXqXOXOXP.y O                                       o X * -.).^.D @ .                                       O $ ;.xX9XOXOX>X( X       ",
"            3 k.eX9X9XOX2XX.# X                                         o @ 8 : O                                           $ 4 '.tXOX#XOXW.x         ",
"            X R gXqX$XOXOXJ.9 X o                                         . @ X .                                         X X Q lX$X#XOXoXw.;         ",
"            . t '.qXqX$XOXXXR O #   o                                                                                     X 4 ].rX$XOXOX:XK X         ",
"              % >.xX9X$XOXOXY.u X                                                                                       X # ;.vXqXOXOXoXG.1 .         ",
"            . & s ].qXOX9XOX@X4.% X                                                                                   . @ z yXqX#XOXoX:XT $           ",
"              % ; O.lXqX8X$X$X=XC X . .   o                                                                     o     @ - x.rX9XOX$XoXM.0             ",
"              X 2 u (.qXqXOXOXoXI.0 . .     o                                                                       O = d.zX9X$XOXoX&XV @             ",
"                $ 2 H dXqX9XOXOX@Xy.3 X o o                                                                       # - ~ kXqXOXOXoX@X0.:               ",
"                . , q j.7XOXOXOXOX2Xe.3 O O                                                                     O - Q dX4XOXOXOX@XK.y X               ",
"                  X 2 l '.4X9X#X9XOX2Xg.< X . .                                                       o     . X - Q dXqXOXOXOXoX!.G +                 ",
"                      $ H uXqXOXOXOXOX@Xt.1 . X . o                                                 .     . X - ;.dXqXOXOX$XoX}. .;                   ",
"                        > ! aXeXOX9XOXOX$XH.g $ X .   o                                       o       o # $ r d.gX8X9XOXOXoX.X2.6 $                   ",
"                        @ 9 >.sX9XOX9X9XOX$X-X..* X O X                                           . X O $ H (.7X9XOXOXoXoX:Xw.8 $ .                   ",
"                          > w :.aX$XqX9XOX$X$X2Xa.m & X X X . .                 .           . . O X % l e.sXOXOXOXOXOXoX.X0.0 @                       ",
"                          X > 9 -.aX$X9X9X9XOXOX$X;Xi.k & . X . X X .           o   . . X X X $ * c 4.yX4XOXOX$XOX$X@X&X@.5 @ .                       ",
"                            . X 4 R ].4XOXOX9X9XOXOX$X*Xa...z ; $ X . . X X O O X     X $ * t R t.*XqX$XOXOXOXOXoXoXW.T > X                           ",
"                                  & z l.2XOXOX9XOXOXOXOX$X@X*XS.e.o.k q 9 4 4 8 9 q p Y 4.H.[.2XqXOXOXOXOXOXOXoXXXa.p . . .                           ",
"                                    @ i O.{.4X$XOXOXOXOXOXOXoXOXoX2X>X%X[.L.Y.Y.{.-X=X2X@X$XOXoXOXOXOXOXOXoX3XQ.+.7 . X                               ",
"                                      X < v h.;X$X9XOXOXOXOX$X$XOXOXOXOXOXOXOXOXOXOXOXOXOXOXOXOXOXoXOXOXoX:Xu.x @ @ .                                 ",
"                                        . ; ; v j.aX3XoXOXOXOXoXOXOXoXOXOXoXOXoXOXOXOXOXOXoX$XOXoXOXXXQ.w.F = + @                                     ",
"                                          $ & % ; z @.).<X3XOXOXOXoXOXOX$XoXoXOXoXoXoXoXoXoXoX,X|.J.2.g > . O .                                       ",
"                                          . $ % & @ & 8 v g.F.-X<X,X3XoXoX@XoXoXoXoXoXXX:X!.G.@.S 3 $ X O .                                           ",
"                                                @ & & @ O @ & d K  .@.q.k.~.^.~.u.0.+. .K u = # X X @ .                                               ",
"                                                  . X X @ % @ . X @ . + = > : > = . . X . . . # X                                                     ",
"                                                          . . . X + .   . + @ @ X . X X . .                                                           ",
"                                                                                                                                                      ",
"                                                                                                                                                      ",
"                                                                                                                                                      "
};
