/* XPM */
static char *result[] = {
/* columns rows colors chars-per-pixel */
"75 75 238 2 ",
"   c #000000",
".  c #090602",
"X  c #0C0B03",
"o  c #030209",
"O  c #0D0B09",
"+  c #110705",
"@  c #110E03",
"#  c #100E09",
"$  c #141104",
"%  c #1A1505",
"&  c #1D1905",
"*  c #161309",
"=  c #1C160A",
"-  c #1D190A",
";  c #231C05",
":  c #291D07",
">  c #231C0A",
",  c #262005",
"<  c #2B2305",
"1  c #2E2907",
"2  c #262109",
"3  c #2D250B",
"4  c #2E290A",
"5  c #312604",
"6  c #332905",
"7  c #3A2A04",
"8  c #322609",
"9  c #342C0B",
"0  c #392C0B",
"q  c #37310D",
"w  c #3B320B",
"e  c #3C3508",
"r  c #2F2910",
"t  c #352A11",
"y  c #3C3413",
"u  c #4B3806",
"i  c #42330C",
"p  c #443B0B",
"a  c #4C3C0C",
"s  c #523F0B",
"d  c #453C13",
"f  c #4A3813",
"g  c #4B4209",
"h  c #53430D",
"j  c #584909",
"k  c #5A4B0D",
"l  c #5D520C",
"z  c #4A4215",
"x  c #534615",
"c  c #594711",
"v  c #534913",
"b  c #5C4D13",
"n  c #5C4E1A",
"m  c #565210",
"M  c #5F5214",
"N  c #614C0A",
"B  c #694E0B",
"V  c #6B5706",
"C  c #65530A",
"Z  c #69550B",
"A  c #6C5C0E",
"S  c #725A0C",
"D  c #7B5E0B",
"F  c #644C11",
"G  c #665511",
"H  c #695515",
"J  c #6D5913",
"K  c #62561C",
"L  c #6E5E19",
"P  c #735B16",
"I  c #776509",
"U  c #73620C",
"Y  c #7B640C",
"T  c #7A690A",
"R  c #756312",
"E  c #7C6415",
"W  c #7B6A18",
"Q  c #695720",
"!  c #776421",
"~  c #776B21",
"^  c #7A6A23",
"/  c #7F7327",
"(  c #856606",
")  c #836709",
"_  c #836C0B",
"`  c #8B6C0B",
"'  c #916C0B",
"]  c #8B7005",
"[  c #93740A",
"{  c #977708",
"}  c #9A7509",
"|  c #9B7A0B",
" . c #836A14",
".. c #836916",
"X. c #8A6D15",
"o. c #867513",
"O. c #8A7214",
"+. c #887718",
"@. c #8B751C",
"#. c #967816",
"$. c #997B1B",
"%. c #AB7B03",
"&. c #A57808",
"*. c #B37E03",
"=. c #B97D09",
"-. c #857424",
";. c #897625",
":. c #867923",
">. c #8A7927",
",. c #907827",
"<. c #857734",
"1. c #9B860E",
"2. c #958117",
"3. c #9B8217",
"4. c #9D8A1A",
"5. c #A4850E",
"6. c #A88509",
"7. c #B48103",
"8. c #B98708",
"9. c #B9950B",
"0. c #A5851B",
"q. c #A88A19",
"w. c #B18E17",
"e. c #A6931E",
"r. c #AD931B",
"t. c #AE9C19",
"y. c #B79719",
"u. c #B4941A",
"i. c #B49B1B",
"p. c #BFA30C",
"a. c #BCA31A",
"s. c #8F8420",
"d. c #978926",
"f. c #9F9327",
"g. c #A68B24",
"h. c #AC9522",
"j. c #A59229",
"k. c #B79C26",
"l. c #BBA225",
"z. c #B5A02E",
"x. c #B9A42C",
"c. c #B4A033",
"v. c #C28403",
"b. c #C68D05",
"n. c #C9970A",
"m. c #D19906",
"M. c #C29A13",
"N. c #CEA50C",
"B. c #CDA90B",
"V. c #D2A40C",
"C. c #D9A90B",
"Z. c #DAB20D",
"A. c #C3A115",
"S. c #C5AC16",
"D. c #CBAA15",
"F. c #CAA519",
"G. c #C3AA19",
"H. c #D3AC14",
"J. c #D1A91A",
"K. c #C9B01D",
"L. c #D6B614",
"P. c #DEBC13",
"I. c #D3B41A",
"U. c #DBB41A",
"Y. c #D2B91A",
"T. c #DEBA1A",
"R. c #E1AC0C",
"E. c #E4B90B",
"W. c #E3BC13",
"Q. c #E7B915",
"!. c #E4BB1A",
"~. c #C19F26",
"^. c #C6A726",
"/. c #C4AA20",
"(. c #D1AC22",
"). c #CCB629",
"_. c #D6B828",
"`. c #C0A931",
"'. c #C9B235",
"]. c #D1B734",
"[. c #D4BA32",
"{. c #DCC316",
"}. c #DEC21C",
"|. c #EDC30D",
" X c #EAC50F",
".X c #F1C60E",
"XX c #F4CB0D",
"oX c #FBCD0D",
"OX c #FED604",
"+X c #FDDC04",
"@X c #F6D20E",
"#X c #FCD40C",
"$X c #F7DD0B",
"%X c #FDDC0B",
"&X c #E5C415",
"*X c #EBC413",
"=X c #E6CB14",
"-X c #ECCC13",
";X c #E5C41B",
":X c #E9CB1C",
">X c #F2C612",
",X c #F3CD13",
"<X c #FCCC11",
"1X c #F4CC1C",
"2X c #EDD119",
"3X c #F4D313",
"4X c #FAD412",
"5X c #FDDC13",
"6X c #F3D51D",
"7X c #F6DB19",
"8X c #FBDD1B",
"9X c #F7E206",
"0X c #FDE204",
"qX c #FDE804",
"wX c #FDE30B",
"eX c #FDE80B",
"rX c #FDE413",
"tX c #FDE41B",
"yX c #FDE81B",
"uX c #DEC52A",
"iX c #DEC432",
"pX c #E4C924",
"aX c #E3CB2C",
"sX c #E8C928",
"dX c #ECD224",
"fX c #E8D22B",
"gX c #F4D623",
"hX c #F5DB25",
"jX c #F9DE23",
"kX c #F3D529",
"lX c #F3D92B",
"zX c #F8DF2A",
"xX c #EED531",
"cX c #F5E024",
"vX c #FCE423",
"bX c #FCE822",
"nX c #FCE32A",
"mX c #FCE431",
/* pixels */
"                                                                                                                                                      ",
"                                                                                                                                                      ",
"                                                  .     . % 7 u j k Z Z Z N j s u 7 % .                                                               ",
"                                                . % 0 j ) 5.M.B.L.E.E.*X*XW.W.Z.V.9.6.D a 8 @                                                         ",
"                                            . 5 Z 5.D.Q.XXOX%X+X+X+XOX+XOXOXOXOXOXoXoX.XQ.M._ k ; X .                                                 ",
"                                        . e  .a.:X#X+X+X0X+X+X+X+X+X+X+X+X+X+X+X+X+XOXOXOX#X,XT.w.R 5 $ .                                             ",
"                                    X p +.L.3X%X%X%X+X+X0X0X+X+X%X+X+X+X+X+X+X0X+X0X+X+XOXOX+X+X#X.XF.E 9 @                                           ",
"                                . 6 W K.@X+X+X+X0X+X+X+X+X0XwXyXtXrXtXvXtXtXtXrXrXrXqX0X+X+X+X9X+X+X#X>XM.S : .                                       ",
"                              @ x u.,X%X+X+X+X0X0X0XqXrXnXxXiX'.c.f.d.s.s.d.j.c.'.iXlXbXyXqX0X%X+X+XOX%X#X*X0.u @   .                                 ",
"                            & W T.#X0X+X0XwX0XwXwXvXaXc.<.n 3 * $ $ $ @ X $ $ * $ 4 K s.x.fXnXrXwX+X+X$XOXOX#XJ.H ; @ .                               ",
"                        . 9 2.:X%X+X0X0X0X+XrXcX].;.z = O . . . @ X X @ X $ X X X . o O - z :.].lXtX$X%X+X+X+X#XQ.X.8 @                               ",
"                        9 e.-X+X0X+X0X0XwXjX).^ r $ @ O O o . o                   o o X X @ $ r ~ ].nXwX+X+XOX+XOX.X0.8 @ .                           ",
"                    . w t.@X+X+X0X+X0XrXuX:.9 X @ . .       o                     o o   . o X $ X r s.uXtX0X+X+X+XOX<Xw.9 @ .                         ",
"                  . e r.@X+X+X0X+X0X8Xk.x * X X . o o                                         . X X $ z z.hXqX%X+XOXOXXX0.6 X .                       ",
"                  6 4.3X+X+X9X0X0X6X>.> $ O                                                       . . @ > d.lXrX+X+X+XOX.X$.= X .                     ",
"                ; #.2X0X0X+X+X0X2X-.= $ .                                                             . $ * / aXwX+X%XOXOX*X... .                     ",
"              $ S ;X+X0X0X0XqX2X..- X o   o                                                               X - ~ fXwX+X+X+XOXP.p X .                   ",
"            X s S.+X0X0X0X0X6X..- $ o         .                                                         o   O - W fX9X+X+X+X#XM.0 + .                 ",
"          . 7 1.4XqX0X0XqX%Xh.= * o           .                                                         o     X * :.lX0X+X+X%XoX' + O .               ",
"        . ; V }.0X0XqXqX0X%X$.O X X X o     o o                                                                 X & d.tX+X%X+XOXQ.c O .               ",
"        % e 1.9XqX0XqXqX0XwX X3.s % X @ X o   .                                                                 . X 9 ).%X+X+X+X4Xu.% O               ",
"      . q V 5.5XqXwXqXqXqX0X0X%X;Xy.G : X X o .                                                                 o . $ K dX+X+X+XOX>XH . O             ",
"      X z I 5.=XwXwXqXqXqXqXwXqX%X%X-XF.R t O . X .                                                                 O $ e.5X+X+X+XOXu.= X             ",
"        z ] %.n.*X%XeXqXqXeXqXqXqX0X+X%X6XU.#.f $ X $ .     o o o                                               o   . @ d uX%X+X+X%XQ.k X .           ",
"        ; D 5.8.v.m.E.3XwXeXqXqXqXqXqX0X0X+X4X!.r.b ; . . . . . .                                                   o X $ 4.wX+X+XOXXX| $ @           ",
"        . < F ' &.=.v.m.R.,X5XwXwXwXeXwXwXwX0X0XOX*Xi.G 8 X X X .                                                 .   . @ v =X+X+XOXOXL.4 X           ",
"            @ : a ) &.=.v.b.C.Q.4XwXeXqXqXwXwX0X0X+X%X3XD.` i # O . .                                                   X $ t.wXOX+X+X*XF . .         ",
"              . . @ 9 B ' %.=.v.m.E.@XrXqXqXwX0XqXwX0X+X+X#XU.3.a % . . . .                                       o o   X X W 6X+X+XOX<Xg.X O         ",
"                  . . . : a D | %.7.b.R.XX%XwXqXqX0X0X0X+X+X+X#X*Xq.k ; X O O o o     o                                 . X y {.+X+XOXOXF.* .         ",
"                      o o . $ 1 C ( &.*.v.C.|.OXwXqXqXwXwXwX0X+X+X%X*Xy.P < @ @ . o o                                     X & a.%X+X+XOX!.i . .       ",
"                          o . . . ; g I } %.7.m.Q.XX0XqXqX0XqXqX0X0X+X%X,XD.) 3 @ . O .                                 . @ $ 4.4X+X+XOX>XH @ .       ",
"                      .         . . . % e C ' &.*.b.C.XX%X0X+X0X0X9X+X+X+X%X<XD. .0 X X X .                               . . R @X+X+XOXoXX.X .       ",
"                                  .   .   $ 3 j U ] &.7.V.,X%X0X0X0X9X0X0X0X+X+X#X(...t @ . .                                 a -X+X+XOX#X#.. X       ",
"                    .                         O 2 u V ( ' 7.m.|.%XwX0X0X+X0X0X+X+X+X#XI.| 6 # .                           o . 0 ;X+X+XOXOX0.. + .     ",
"            .                                 . o . % w l I ] %.n.E.OX0X0XwX0X0X+X+X+X%X#XU.G O .                           O 9 }.%X+X+XOXy.= .       ",
"                  . .                             o o   @ 1 j U ( } C.%X0X0XwX0X0X0X0X0X%X$X^.: X                         o X 4 Y.+XOXOXOX~.> @       ",
"                      .                                 o . $ 4 C ( N.+X0X0X+X0X+X0X+X0X0X+X_.3 X                           X 4 Y.+X%X+X#X~.> + .     ",
"                                          o     .   o . X X X & _ B.XX0X+X+X+X+X0X0X0X+X5XgX;.@ .                           X 4 L.+X+XOX%X~.> +       ",
"                                          o o o . . O . @ 1 I y.-X+X+X+X+X+X0X+X0X+X%XgX].^ * .                           . X 9 P.+XOX%XOXy.= .       ",
"                            .         o   o . O @ . & p #.Y.@X%X+X+X+X+X0X0X+X0X5XdXl.! 2 @ O                                 e &X+X+X+X#Xq.. .       ",
"                                      . . O O X 9 J u.;X%X+X+X+X9X0X+X0X+X%X5XsXg.n > X . O .                             . o k -X+X+XOX#X$.. .       ",
"                                . . X X . % z @.(.3XwX+X+X+X0X%X+X+X+X0X7XuXd.y % @ O . . o                               . @ o.#X+X+X+X4XX.X X       ",
"                            . X X X $ 3 L a.=X5X0X+X0X+X0X+X+X+XwX5X6X^.-.q X . X .                                       @ $ e.#X+X+XOX1XP + @       ",
"                        . . $ % 3 v 2.Y.6X%X0X+X+X+X0X+X+X0XwX5XpXh.G 3 $ . . .                                           . ; S.%X+X+X+X&Xf . .       ",
"                    . X = 6 c +.a.:X%X0X0X+X+XwX+X0X0X%XrX7X).@.i $ . X O .                                             . X v =XOX%X+X%X/.& $         ",
"                    $ e R t.}.4X+X+X0X0X0X0X+X0X+XwXvXaXh.L % X X $ X o                                                 . X o.#X+X+X+X4Xg.@ % .       ",
"                $ g o.S.-X5X%X0X0X0X0X0X+X0X0XrXgX_.,.z & X . O .   o   o                                               X & a.%X+X+XOX1Xb O @ .       ",
"            $ M h.;X$XwX0X0X0X0X0X0X0XqXwXjXaXk.Q 3 + X . O     o                                                   o . X M =X+X+X%X%X_.< @ X         ",
"        . ; T ;XrXwX+X0X0X0XqX0X0XwXrXkX^.;.y * O # O .                                                               O - i.%X+X+X+X5X,.; ; .         ",
"      . 6 j S.wX9X0X0X0X0X0X0XrXjXiXj.n 3 $ . . .     o                                                           o . X M :X+X+X+X0XpXx @ % .         ",
"      $ v U Y.wXwX0XqX0X0XwX6X`.! 0 $ O @ . . o o o                                                               . . % a.%X0X+X+X%Xh.& % . .         ",
"      $ m I p.0X0X0XqXqXqX3X..- O X @ . o                                                                   o     X $ o.@X+X0X0X%X:Xn $ % .           ",
"      . g T 6. X0XqXwXqXqX*Xa * O .                                                                     o o     . . h ;X%X+X0X+X4Xh.; & $             ",
"        2 U ] M.$XqXqXqXqX%Xh.$ O . o                                                                   o   o . X 1 G.%X+X0X+X%X}.b ; $ .             ",
"        . e T { P.wXqXqXqX0X4X| ; O .                                                                       o O < t.#X+X+X0X+X3X@.3 .                 ",
"          $ l _ 6.3X0XqXrXwX0X1X@.$ O .                                                                   . @ 3 j.#X+X0X0X0X5Xl.p @                   ",
"            , A ] M.5XqXrXwX9XwX,X#.$ . .   o     . .                                             o     X . 2 e.3X0X0X0X0XwX_.x @                     ",
"              9 Y { D.rX0XqXrXwX+X6Xq.8 @ . . o                                                     . X @ 9 i.#X+X+X+X%X%XpX! &                       ",
"              . e T [ U.rX9XwXeXwX+X%Xa.k O X X o   o                                         o o O X % A I.#XOX+X0X+X0XsX;.3 .                       ",
"                . g T | T.tXwXwXrXwX+XOXW.O.6 X # .                                           . X X e 3.|.#X+X+X9X+XrXdX>.9 X                         ",
"                  X g I | U.tXwXwXwXeX0X%X@XH.^ 8 @ . . . . . o                     . . . . X @ 0 ..Y.#X%X+X0X0X%X%XsX;.w ; .                         ",
"                    $ p Y { L.6XwXwXrX9X+X+XOX<XH.` a & X O . @ @ # . . . . . O # X X X X % p X.I.XX%X+X+X%X+X0X5XiX/ 9 : O                           ",
"                      X w R [ M.gXrXrXrX0X0X+X+XOXOXP.w.E s % $ @ X .     . . X $ $ & h  .w.E.3X+X+X+X0XwXwX%X8X].K : X .                             ",
"                        . 4 A ` 9.;XbXrXeXeXrXrX0X+X%XOX<X*XM.w.#.E N u u s F E | 9.B.W.@X+X%X+X+X%X%X+X0XwXfXj.z $                                   ",
"                            % v X.6.H.6XvXtXvXvXrXwXwX+X%X%XOX#X#XXXXX|.|..XXX,X#X+XOXOX%X%X+X+X+XwXqXwXkX).K 9 2                                     ",
"                              @ i R &.b.!.gXvXbXyXyXwXrXwXwX0X+X+X+X+X+X+X+X+X+X%X+X0X+XwX+X0XwXwXwXcX[.@.d 2 2 @                                     ",
"                                . % x  .&.M.T.gXnXvXtXtXyXrXrXwXrXwXwXwXwXwX%XwX0XwX0XwXrXwXwXtXhX].,.d 2 < $ .                                       ",
"                                    . & f D } 8.B.&X7XvXvXbXbXbXbXvXvXvXtXtXrXrXrXwXrXtXvXhXaXk...y % & % X                                           ",
"                                        . $ 9 b Y O.6.A.Y.:XgXhXzXnXmXnXnXnXvXcXnXlXfX[.c.-.x 3 . .                                                   ",
"                                              . $ 9 g b J Y [ 5.t.i.a././.l.k.e.2.W k p , X                                                           ",
"                                                      $ % , < < < 5 5 6 6 5 < ; $ .                                                                   ",
"                                                                                                                                                      ",
"                                                                                                                                                      ",
"                                                                                                                                                      ",
"                                                                                                                                                      "
};
