/* XPM */
static char *result[] = {
/* columns rows colors chars-per-pixel */
"75 75 240 2 ",
"   c #000000",
".  c #090602",
"X  c #0C0B03",
"o  c #030209",
"O  c #0D0B09",
"+  c #110705",
"@  c #110E03",
"#  c #100E09",
"$  c #141104",
"%  c #1A1505",
"&  c #1D1905",
"*  c #161309",
"=  c #1C160A",
"-  c #1D190A",
";  c #231C05",
":  c #291D07",
">  c #231C0A",
",  c #262005",
"<  c #2B2305",
"1  c #2E2907",
"2  c #262109",
"3  c #2D250B",
"4  c #2E290A",
"5  c #312604",
"6  c #332905",
"7  c #3A2A04",
"8  c #322609",
"9  c #342C0B",
"0  c #392C0B",
"q  c #37310D",
"w  c #3B320B",
"e  c #3C3508",
"r  c #2F2910",
"t  c #352A11",
"y  c #3C3413",
"u  c #4B3806",
"i  c #42330C",
"p  c #443B0B",
"a  c #4C3C0C",
"s  c #523F0B",
"d  c #453C13",
"f  c #4A3813",
"g  c #4B4209",
"h  c #53430D",
"j  c #584909",
"k  c #5A4B0D",
"l  c #5D520C",
"z  c #4A4215",
"x  c #534615",
"c  c #594711",
"v  c #534913",
"b  c #5C4D13",
"n  c #5C4E1A",
"m  c #565210",
"M  c #5F5214",
"N  c #614C0A",
"B  c #694E0B",
"V  c #6B5706",
"C  c #65530A",
"Z  c #69550B",
"A  c #6C5C0E",
"S  c #725A0C",
"D  c #7B5E0B",
"F  c #644C11",
"G  c #665511",
"H  c #695515",
"J  c #6D5913",
"K  c #62561C",
"L  c #6E5E19",
"P  c #735B16",
"I  c #776509",
"U  c #73620C",
"Y  c #7B640C",
"T  c #7A690A",
"R  c #756312",
"E  c #7C6415",
"W  c #7B6A18",
"Q  c #695720",
"!  c #776421",
"~  c #776B21",
"^  c #7A6A23",
"/  c #7F7327",
"(  c #856606",
")  c #836709",
"_  c #836C0B",
"`  c #8B6C0B",
"'  c #926D04",
"]  c #916C0B",
"[  c #8B7005",
"{  c #93740A",
"}  c #977708",
"|  c #9A7509",
" . c #9B7A0B",
".. c #836A14",
"X. c #836916",
"o. c #8A6D15",
"O. c #867513",
"+. c #8A7214",
"@. c #887718",
"#. c #8B751C",
"$. c #967816",
"%. c #997B1B",
"&. c #AB7B03",
"*. c #A57808",
"=. c #B37E03",
"-. c #B97D09",
";. c #826B21",
":. c #857424",
">. c #897625",
",. c #867923",
"<. c #8A7927",
"1. c #907827",
"2. c #857734",
"3. c #9B860E",
"4. c #958117",
"5. c #9B8217",
"6. c #998319",
"7. c #9D8A1A",
"8. c #A4850E",
"9. c #A88509",
"0. c #B48103",
"q. c #B98708",
"w. c #B9950B",
"e. c #A5851B",
"r. c #A88A19",
"t. c #B18E17",
"y. c #A6931E",
"u. c #AD931B",
"i. c #AE9C19",
"p. c #B79719",
"a. c #B4941A",
"s. c #B49B1B",
"d. c #BFA30C",
"f. c #BCA31A",
"g. c #8F8420",
"h. c #978926",
"j. c #9F9327",
"k. c #A68B24",
"l. c #AC9522",
"z. c #A59229",
"x. c #B79C26",
"c. c #BBA225",
"v. c #B5A02E",
"b. c #B9A42C",
"n. c #B4A033",
"m. c #C28403",
"M. c #C68D05",
"N. c #C9970A",
"B. c #D19906",
"V. c #C29A13",
"C. c #CEA50C",
"Z. c #CDA90B",
"A. c #D2A40C",
"S. c #D9A90B",
"D. c #DAB20D",
"F. c #C3A115",
"G. c #C5AC16",
"H. c #CBAA15",
"J. c #C6A31A",
"K. c #CAA519",
"L. c #C3AA19",
"P. c #D3AC14",
"I. c #D1A91A",
"U. c #C9B01D",
"Y. c #D6B614",
"T. c #DEBC13",
"R. c #D3B41A",
"E. c #DBB41A",
"W. c #D2B91A",
"Q. c #DEBA1A",
"!. c #E1AC0C",
"~. c #E4B90B",
"^. c #E3BC13",
"/. c #E7B915",
"(. c #E4BB1A",
"). c #C19F26",
"_. c #C6A726",
"`. c #C4AA20",
"'. c #D1AC22",
"]. c #CCB629",
"[. c #D6B828",
"{. c #C9B235",
"}. c #D1B734",
"|. c #D4BA32",
" X c #DCC316",
".X c #DEC21C",
"XX c #EDC30D",
"oX c #EAC50F",
"OX c #F1C60E",
"+X c #F4CB0D",
"@X c #FBCD0D",
"#X c #FED604",
"$X c #FDDC04",
"%X c #F6D20E",
"&X c #FCD40C",
"*X c #F7DD0B",
"=X c #FDDC0B",
"-X c #E5C415",
";X c #EBC413",
":X c #E6CB14",
">X c #ECCC13",
",X c #E5C41B",
"<X c #E9CB1C",
"1X c #F2C612",
"2X c #F3CD13",
"3X c #FCCC11",
"4X c #F4CC1C",
"5X c #EDD119",
"6X c #F4D313",
"7X c #FAD412",
"8X c #FDDC13",
"9X c #F3D51D",
"0X c #F6DB19",
"qX c #FBDD1B",
"wX c #F7E206",
"eX c #FDE204",
"rX c #FDE804",
"tX c #FDE30B",
"yX c #FDE80B",
"uX c #FDE413",
"iX c #FDE41B",
"pX c #FDE81B",
"aX c #DEC52A",
"sX c #DEC432",
"dX c #E4C924",
"fX c #E3CB2C",
"gX c #E8C928",
"hX c #ECD224",
"jX c #E8D22B",
"kX c #F4D623",
"lX c #F5DB25",
"zX c #F9DE23",
"xX c #F3D529",
"cX c #F3D92B",
"vX c #F8DF2A",
"bX c #F5E024",
"nX c #FCE423",
"mX c #FCE822",
"MX c #FCE32A",
"NX c #FCE431",
/* pixels */
"                                                                                                                                                      ",
"                                                                                                                                                      ",
"                                                                                                                                                      ",
"                                                            X X X . @ @ @ X .   . @ X . . .                                                           ",
"                                                    . # . . X X . . = > : > = + X X @ . @ % $ X X . .                                                 ",
"                                              . @ X . @ * i J o.$.e.l._._.).a.k.%.o.P f = @ X @ % & X                                                 ",
"                                          . X @ $ 3 F e.J.(.1X@X&X#X#X#X#X#X&X&X&X3X4X(.U.k.b 3 % * & % $ .                                           ",
"                                      . O O > h 5.Y.1X7X&X#X#X#X#X#X$X#X#X#X#X$X$X$X$X$X=X7X4X[.%.x & % & @                                           ",
"                                    @ + = H a./.@X#X#X#X#X$X$X$X$X#X$X#X#X$X$X$X$X$X$X#X$X#X$X#X&XgXl.n ; ; X                                         ",
"                                . @ @ c a.1X&X$X#X#X$X$X$X$X$X$X$X$X$X$X$X$X#X$X$X$X$X$X=X$X$X$X$X$X8X<Xl.b 2 X                                       ",
"                              X . 8 $.(.3X#X$X$X$X$X$X$X$X*X8X6X5X,X,XW.W.W. X-X2X6X=X#X=X$X$X$X#XeX$X$X8X.X#.p @                                     ",
"                          . X X a V.@X#X#X$X$X$X$X$X=X0X Xf.7.R a 9 9 4 1 4 1 e k O.u.G.:X%X$XeX$X#X$XtX$X=X6Xc.v %                                   ",
"                        . X > E Y.#X#X$X$X$X$X=X*X:Xi.W y $ $ .   . . O X X X . . X $ > v O.f.<X=X$XeXeXeX$X$X8X[.! 4 X .                             ",
"                      . @ 5 %.;X#X$X$X=X$XeX8XaX7.v $ @ X X X .     o     o   o . X X X X . & k s.<X#X$X$XeXeXeXtXgX>.0 ; X                           ",
"                      @ 9 e.OX#X$X$X$X$XtX<Xl.z $ O X X .                               . X X X & M f.6X$X=X$XeXtX=XgX<.q 2 .                         ",
"                  . + t t.+X#X#X$X$XeXqX].K $ @ X X                                           X O X & O.(.=X$XeXrX$X$XxX>.9 X                         ",
"                . @ 8 %.3X#X$X$X$XeXlXh.t $ O .   o                                               . X * j L.%X$XeX$X$XuXgX^ >                         ",
"                  : o.+X#X#X$X$XrXjX,.& O X           o                                             . X X 4 s.6X$XeXeX$X=XsXK *                       ",
"                @ B /.#X$X$XeX8XgX~ * X .   o                                                           . X < j.6X$X$XwX=XuX}.d 2 @                   ",
"              X p I.&X#X$X$XtXjX~ - @                                                                     . O 3 y.&X#X$XtX$XqXz.q , .                 ",
"              : e.@X$X=X$XtXcX/ - O                                                                       o o * 1 s.&X#X$X$XtXhXK 2 $                 ",
"            @ S ;X$X$X#XeXbXh.% O                                                                       o     . . 9 R.=X$XeX=XtX].i < X               ",
"          . 0 V.&X$X$XeXiXv.> @ o                                                                         o     . @ A oX$X=XtXrXcX#., %               ",
"          $ E 1X#X$X*XyXaXx $ .                                                                                   X $ 7.%X$XeX$XyX|.d &               ",
"        . 1 J.#X$X$X*XvX,.$ X                                                                                     . X e R.=X$X$XeXzX1.%               ",
"        X R 1X#X$X=XuX|.4 X                                                                                         O O X.%X$X=XtXtX|.y .             ",
"        : t.#X$X=XtXcX~ X X                                           X @ .                                       o o # 8 R.#X$X$XyXlX;.X             ",
"        h Q.$X*XeXpX}.r @ .                                       . + < 8 *                                           . @ +.6X#X$XtXiXx.<             ",
"      @ _ 2X$X$XtXMX,.$ O                                       . * F _.[.>.= .                                         @ u ^.$X$XwXyXfXx             ",
"      5 V.&X$X$XrXgXz @ .                                       . 8 E.=X$XkX^ $ X o                                     . % t.#X=XeXtXlX:.X           ",
"      a /.#X#X$XuXb.- X o o                                   X X  .&XwXeXtX}.> X .                                     . . W %X#XtXiXnXx.2           ",
"    . D OX#X#XeXnX<.# X                                     . X 9 W.=X=XeX$XkX! X .                                     . @ g oX#X$XtXpX|.p           ",
"    & *.+X$XeXtXcXK X o                                     X @ X.&X$XeX$XeX=Xc.> .                                     . X & H.#XtXrXuXjXk           ",
"    7 N.@X$X*XuXsX4 . . o                                 o X 9 '.#X$XeXeX$X$XhXn @ .                                     X $ w.#X$XtXtXcXE X         ",
"    u C.#X$X$XuX{.$ . o                                 o . $ ..7X$XtXeXeXeXeX8Xk.% @                                     X $  .&X$XtXuXMX4.$         ",
"    s D.#X$XeXiXn.* X                                   o X 8 H.#X$XtXeX$X$X$XtXdXy . .                                   X X E +X$X$XuXMXy.&         ",
"    j /.#X$XeXuXz.$ O                                   X @ ..2X$XeXtXtXeX$XeX$X8Xh.@ X                                   . . F %X$XtXiXMXs.,         ",
"    C ^.#X$X$XiXh.$ $                                 o X 3 H.#X$XeXeXeXeX$XeX$X=XaXq . o                                 . o s oX$XtXiXMXc.5         ",
"    C -X#X$XeXiXg.X X                                 . X P 2X$XeX$XtXeXeXeX$X$X$XqX:.X . o                               .   u XX#XtXnXMX`.6         ",
"    Z ;X$X$X$XpXg.$ @                                 . , p.#X$XeXeXeX#X$X$X$XeX$XyX_.3 X . o                             X   u XX$XtXpXMX`.6         ",
"    C oX#X$XeXuXg.@ @                                 . h 1X$X$XeXwX=XS.C.%X$X$X$X$X9XG . .                               . . N +X$XeXnXNXc.5         ",
"    N ^.#X$X$XuXj.* X                             o @ % r.=XwXwXeXeX~.' ( Z.$X$XeX$X8Xy.* $                               X @ P +X$XtXnXNXf.5         ",
"    j Y.#X$XtXiXn.* X   o                       . . X f ;XtXeXrXeX=XB.( l _ >X$XwXeXtXdXp X X                             @ @ $.&X$XuXmXMXu.5         ",
"    u Z.$X$X$XiX{.* .                         o   @ * 5.7X$XrX$XtXXX&.U 1 ; s.$X$X=X$X8Xg.O X                             @ $ t.&XeXuXmXkX3.<         ",
"    7 V.#X$XeXyXsX8 o o                         . X 0 Y.$XeXrXeX=XB.' j $ . R %X$X$X$XtXU.- o                           . X % K.#X$XuXpXkX{ ,         ",
"    & 8.#X$X$XtXcXn X .                         X X ` =X$XeXeXtX1X0.I 1 . X 3 W.$X$X$XeX9XL O .                         . @ a /.=XtXiXmX<XT ;         ",
"      ) %X$XeX$XMX2.O O   o                     X 3 H.$X$XtXrX=XA.' l $ o X $ 4.=X$XeXeXuXl.% X                         . X E 3X$XtXiXnXW.J &         ",
"      j ^.$XeX$XuXn.= X                       . . G 2X$XeXtXrX+Xq.Y e       . p ,X$X$X$XtXgXf $ .                       . % t.=X=XyXiXnXF.k @         ",
"      0 K.#X$XtXrXfXz @ . o                   @ : s.=XtXtXeX$XS.*.V & o     O = a.=X$XeX$XnX1.+ #                     o . p ^.$XtXyXiX9X8.a           ",
"      % 8.=X$X=XtXnX:.* X                   . X k ;X$XtXrXtX%XM.[ u . o     X X J 6X$XtX$X=X].3 #   o             o   . @ o.%XeXyXuXnX-X{ 9           ",
"      . Z ;X$XeX$XyX|.3 *                   X % t.#XeXrXrXtX!.=.U : o     o . @ 9 R.$X$XtXeXkXQ X . o             o   @ 8 P.$X$XuXmXMXC.R $           ",
"        5 f.=X$XeX$XlX~ X X           o   . X f  X$XtXrXrX=XB.| h X .       o O $ <.8XeX$X$XiXx.* . o               @ + ;.3X$XtXiXnXxXq.b .           ",
"        X ..6X$X$XwXuX|.9 .           o o o + $.7XtXrXyXtXOX-.' 1 .         o o X z :XeX$XeXeXfXy . .             . @ 8 I.#XeXuXmXnX(.| 9             ",
"          e Y.$X=XeXeXqX:.* X o   .   o o + t R.$XtXtXrX8XB.&.V X           o   . % s.=X$XeXeXqX<.O .             . X +.@X$XtXyXnXkXV.D %             ",
"          X O.6X$XeXeXtXaXv $ . o       . @ R 6XeXtXrXrX+XM.' e             o   . . R 9X$XrXeXtX_.3 $           . O k ^.$XtXwXyXnXQ.*.a               ",
"            p U.=X$XeXrXuXx.> @ o       @ < K.=XeXyXrX8X!.=.I & .                 X 4 R.eXeXeXrXxXn O .       . X 8 F.#XeXyXuXuX9XM.X.;               ",
"            X W >X$X$XeXeX0X1.& O o   X X G >X$XrXyXrX%XM.*.g . .                 X $ 6.=XeXeX$XuXk.= @     . X * e.%X$XyXuXuXiXP.*.x .               ",
"              1 s.8X$XeX$XtX9X:.& $ o X % p.=X$XyXwXyX~.0.( : .                   . X v <XeXeXeXtXsXq X . o X % $.6X$XtXyXyXuX,X9.R %                 ",
"              . v E.=XeX$XeXeX5XW - * X x ,X$XrXrXyX7XB.0.C X                     . @ 3 f.tXeXeXtXlX^ O # O ; #.2X$XtXuXyXyXkXq.o.i                   ",
"                X E dX$X$X$XtXtX<X@.- + 4.=XrXrXrXtXXXm.} 6   .                     X % O.7X$XeXeXuXb.- $ % $.2X=XtXuXyXtXqXF.` v @                   ",
"                  , 4.>X$XeXeX$XeX9Xl.$.:X$XtXrXrX8XS.-.Y *   o                     . * c Q.=XtXeXeX9XW s l.7X$XwXyXwXtXqXP.{ G &                     ",
"                    9 r.%X$X$X$XeXeX=X=X$XtXrXrXrX1XM.*.a .                           X 9 i.=XeXeXeXtX6X:X=X$XyXyXrXyXiXE. .R 4                       ",
"                    . w i.6X$XeXeXeXeXrXrXrXrXrXuX!.m.] : o .                         . & R >XeXeXeXtXrXrXrXrXwXuXtXtXE. .Y w .                       ",
"                        e y.%XeXeXtXeXrXrXrXrXyX2XB.0.B +       o         .             X e U.$XeXeXeXrXyXrXrXtXrXuXE. .I p X                         ",
"                        . e 7.5X$X$XrXeXrXrXtXyX~.m.*.7   .         .     .             . X O.=XtXeX$XrXrXrXeXeX$XH.} T g $                           ",
"                            9 { -XtXeXeXyXwXyX=XB.=.) $                                     g :XtXeXrXrXrXrXtX6XF.{ I g X                             ",
"                              ; S U.8XeXrXeXyXXXm.*.s .               .                     % l.8XtXwXtXtX*XT.9.[ R e X                               ",
"                                $ g 3. X*X*XoXN.q.] : o           .                           M ,XuXtX*X>XN.| _ A 9 .                                 ",
"                                  @ 6 Z 3.9.3.*.9.F @                                         $ T G.W.d.9.[ T m 2 .                                   ",
"                                    . ; p V I [ P <                                             , j U I T U e @                                       ",
"                                      . & q z d < .                                             X 6 v m g , X                                         ",
"                                          . X .                                                     @ $ .                                             ",
"                                                                                                                                                      ",
"                                                                                                                                                      ",
"                                                                                                                                                      "
};
