/* XPM */
static char *result[] = {
/* columns rows colors chars-per-pixel */
"75 75 195 2 ",
"   c #010101",
".  c #090506",
"X  c #090807",
"o  c #040408",
"O  c #0A0609",
"+  c #0D090B",
"@  c #14050B",
"#  c #17060A",
"$  c #1B050D",
"%  c #110C0E",
"&  c #1C0711",
"*  c #140E11",
"=  c #1B0C14",
"-  c #161113",
";  c #1A1215",
":  c #1D1519",
">  c #230A14",
",  c #250C18",
"<  c #290D18",
"1  c #261014",
"2  c #23131B",
"3  c #29121A",
"4  c #231A1E",
"5  c #2C1621",
"6  c #261D21",
"7  c #2B1C23",
"8  c #341523",
"9  c #3B1527",
"0  c #3B1729",
"q  c #351D29",
"w  c #3C1C2A",
"e  c #2C2226",
"r  c #2E2429",
"t  c #33242B",
"y  c #3A242E",
"u  c #342A2D",
"i  c #382D2F",
"p  c #3B2730",
"a  c #352C31",
"s  c #3A2C33",
"d  c #3D3135",
"f  c #421B2E",
"g  c #451D30",
"h  c #442434",
"j  c #4A2436",
"k  c #422C35",
"l  c #4B2E37",
"z  c #4D2538",
"x  c #462B38",
"c  c #4C2A3B",
"v  c #502C3D",
"b  c #463137",
"n  c #45333B",
"m  c #4B333D",
"M  c #493B3F",
"N  c #552E42",
"B  c #4C3540",
"V  c #473940",
"C  c #4C3C42",
"Z  c #533343",
"A  c #593547",
"S  c #543D47",
"D  c #593946",
"F  c #563648",
"G  c #593649",
"H  c #563B48",
"J  c #5B3C4B",
"K  c #5F3F52",
"L  c #603A4D",
"P  c #633C51",
"I  c #56434A",
"U  c #5A424C",
"Y  c #57484E",
"T  c #5B484F",
"R  c #5E4351",
"E  c #5F4C54",
"W  c #644354",
"Q  c #644A55",
"!  c #684659",
"~  c #664A5A",
"^  c #6A4C5C",
"/  c #724659",
"(  c #665256",
")  c #67555C",
"_  c #6C535D",
"`  c #73525E",
"'  c #6E4F60",
"]  c #744C60",
"[  c #7A4E60",
"{  c #6D5560",
"}  c #745463",
"|  c #7C5566",
" . c #755A63",
".. c #7A5E64",
"X. c #775F6A",
"o. c #7D5C6A",
"O. c #7D6167",
"+. c #7D616C",
"@. c #7E6571",
"#. c #825265",
"$. c #86576E",
"%. c #835A6C",
"&. c #895E73",
"*. c #83656F",
"=. c #88656F",
"-. c #836471",
";. c #8A6374",
":. c #846876",
">. c #8A6975",
",. c #8D6A7A",
"<. c #936274",
"1. c #916D76",
"2. c #90667A",
"3. c #946B7D",
"4. c #99687D",
"5. c #94727B",
"6. c #9C6E83",
"7. c #967082",
"8. c #9C7384",
"9. c #997987",
"0. c #9E7589",
"q. c #9C7B89",
"w. c #A46F88",
"e. c #A07087",
"r. c #A5778B",
"t. c #AA768E",
"y. c #A57B8C",
"u. c #A87B8D",
"i. c #AB7C92",
"p. c #B37D95",
"a. c #B77E99",
"s. c #A6828D",
"d. c #A8808F",
"f. c #A68292",
"g. c #AB8495",
"h. c #AE8999",
"j. c #B48296",
"k. c #B58499",
"l. c #BC869E",
"z. c #B58B9C",
"x. c #BA8D9B",
"c. c #BB909E",
"v. c #B98AA2",
"b. c #BB8DA1",
"n. c #BC93A5",
"m. c #C087A0",
"M. c #C38BA3",
"N. c #CA89A6",
"B. c #CA8DA9",
"V. c #C293A6",
"C. c #C592A9",
"Z. c #CC93AC",
"A. c #C598A9",
"S. c #CD9CAE",
"D. c #D292AC",
"F. c #CE9DB1",
"G. c #D697B2",
"H. c #D49BB4",
"J. c #DC9BB6",
"K. c #D79FB8",
"L. c #DC9CB9",
"P. c #E29FBD",
"I. c #CDA2B5",
"U. c #CFA6B9",
"Y. c #D4A3B6",
"T. c #D5A6B9",
"R. c #DBA3BB",
"E. c #D5A9BB",
"W. c #DBAABE",
"Q. c #E3A2BE",
"!. c #E0ACBF",
"~. c #DFA6C1",
"^. c #DCACC1",
"/. c #E5A5C2",
"(. c #EBA6C4",
"). c #E5ABC4",
"_. c #EBABC6",
"`. c #EDA7C8",
"'. c #EDACC9",
"]. c #F0A7C5",
"[. c #F0AAC6",
"{. c #F0A7CB",
"}. c #F1ADCB",
"|. c #E6B0C5",
" X c #E8B1C5",
".X c #E5B3C9",
"XX c #EDB2CC",
"oX c #EEB8CF",
"OX c #F2B2CE",
"+X c #F0B9CF",
"@X c #EFB7D1",
"#X c #EEB9D1",
"$X c #F3B5D1",
"%X c #F3B9D3",
"&X c #F5BBD8",
/* pixels */
"  o o   o   o o     o   o   o     o o   X o X o o o o o o o   o o o o o o o o o o o o o o o o o o o o o o o o o o   o   o o o   o   o     X   X       ",
"    o     o     o o       o   o o     o o     o   o   o o o o o o o o o o o o o o o o o o o o o o o o o o   o o o o o   o   X     o   o o       o     ",
"                    o o   o o     o o o o   o X o o o o o o o o   o o o o o o o o o o o o o   o o o o   o o o o o o o o o X o         o     o o   o o ",
"o o   o o   o o   o         o   o         o     o o   o o   o X o o o o o o o o o o o o o o o o o o o o o o o   o     o   o   o o   o   o             ",
"      o   o       o o   o o         o o   o   o o     X X o   .   X X X o o o X o o   o o o o o o   o o   o o o o     o o o   o   o   o     o   o     ",
"  o         o         o       o o         X       X o   X X - 4 u i i d d d d i u e 4 * X o o o o o o   o   o     X         o   o   o   o o       o o ",
"            X   o       o     o         o o X   X X : a V Y Q ( _ O.*.*.=.:.@.@.O. .) Y C d : % o o o o     o o   o   o   o     o     o       o     o ",
"              o   o o       o   o   o   o o   - a I ( ..:.5.s.z.A.S.Y.Y.Y.E.Y.Y.Y.F.A.z.s.5.O.U u - X   o             o       o     o     o   o o     ",
"                    o         o   o   o X - b E  .=.y.V.Y.).|. X.X X_._.'.).).'. X_.|.|.|.^.T.n.q.{ k ; . o o   o     o   o   o         o       o     ",
"                        o         X   + u E ..1.x.E. XoX X X X_. X_.'. X X_.XX X'. X)._.'.|.'. XXXE.v.o.t + O     o X           o     o o   o         ",
"                                    % I  .>.x.!.oX X'.'.XXXXXX'.'.'.'.'.`.(.'.'.`.'.XX'.'.'.'.'.|.'..X^.k.I * O X                                     ",
"    o                           X 6 T O.s.E.+X+XXXXXXX'.OX`.'.`.(./.Q.L.L.L.L.L.Q.Q.).(._. X'.'..XXX XXX.XT.-.7 + X                             o     ",
"        o                   X X u ) =.c..X%X$XOXOX}.[. X/.L.B.p.2.o.' ~ R U R W ^  .;.t.M.L.(.].'.'.@X'.XXOX Xg.d X o                                 ",
"o                             e ) >.S.oX%XOXOXOXOX[.Q.V.,.J s 4 . . + + + O + + O O . 2 p H &.v.P._.}.XXXXXXOXoXn.b % X                               ",
"  o o                   o   4 ( >.S.%X+XOXOXOX}.(.l.` e * O + O O o O o o o O o O o O O + O * 7 ^ a./.'.OXOXoXOX+Xn.d + X                             ",
"      o                   * Y =.S.%X%XOXOXOX'.Z.} 7 O O O o                               o O O + 7 } B._.OXXX+X+X%Xn.u * X                           ",
"                        O C O.A.@X%XOX$X}.`.i.V + + O                                           O + O m p.(.OXOXOXOX%Xf.: + o                         ",
"                    o o u _ j.%X%X$XOX}.).,.4 + O                                                   + % 5 4./.OX+XOXOXoX+.+ +                         ",
"                      * T 3..X%XoXOX'./.,.% o o                                                       o . * 2.).OX$X$X%X^.I * o                       ",
"                      d | F.&X+X}.[.`.6.; . o                                                           o O : t.'.OX@XOX%Xn.4 +                       ",
"                  o : U y.@X$X$X}.[.M.y O o                                                               o O k M.OX$XOXOX+XX.% O                     ",
"                    y | ^.&X$XOX}.Y.J % .                                                                   O + R L.@X$X$X%XI.7 %                     ",
"                  % Z i.$X$X$X'.(.2.% O                                                                       + + 8.'.@X@X$XoX*.O X                   ",
"                o 5 ] T.&X$X'.}.Z.s O .                                                                         O k H.OX@X$X$XA.t O                   ",
"                O l e.oX$XOX'.(.o.+ o                                                                           O * >.'.$XOX%XoX) + o                 ",
"                ; L Z.%XOXOXOXZ.y +                                                                               O k G.$X%X$X%Xh.: %                 ",
"                3 | _.$XXX}.'.,.% O                                                                               O * 5.OXOX$X%X/.d . o               ",
"              @ 8 i.$XOXOXOXL.V O .                                                                               X X U ~.$X%XOXOX*.% +               ",
"              % z G.%XoX}.OXk.* O                                                                                   X 2 b.OXOXOXOXc.- O               ",
"            o # / ).OXXXOX'.o.+ O                                                                                   X + >.`.}.OXOXR.d .               ",
"            o $ <.$XOXOX}.R.s   .                                                                                   X . l P.}.}.}.XXo.O +             ",
"            . 8 a.$XOXOXOXb.6 %                                                                                       % 7 M.XXOXOX+X7.+ .             ",
"            . x H.$XOX}.OX3.* O                                                                                       O - 4.OX+X+X%XC.7 O             ",
"            X D (.$XOX}.'.Q . .                                                                                       .   ^ }.OXOX$X!.C % .           ",
"          . @ ` XX}.'.$XE.V +                                                                                           % M R.OXOXOX'.E   X           ",
"          O % e.$X@X$X}.n.q +                                                                                           . t B.OXOXOX+X=.O X           ",
"          % 4 l.OX$X}.$Xr.+                                                                                               % u.OXOXOXOXj.1 % .         ",
"          O e G.OX}.$X}.>.+ X                                                                                           O X <.}.}.OXOXS.e %           ",
"          O F R.$X}.}.'.` O o                                                                                           X + ` _.}.OXOXR.t +           ",
"        o O / `.}.XX$X~.S . .                                                                                           . % U Q.OXOX+X|.b             ",
"        . O #.XXOX}.OXT.y o .                                                                                           o O i J.OX}.$XXX` X O         ",
"        O O 2.XX}.OXOXC.; . .                                                                                             X ; M.}.}.OXOX1.# +         ",
"        O * r.OX}.}.$Xk.% O                                                                                               % - j.OX}.OXOXy.- %         ",
"        % * j.OXOX}.$Xy.- +                                                                                               % * u.OX}.}.$Xx.* %         ",
"        . - M.OXOXOX'.7.- %                                                                                               % % 3.'.OX}.$XM.* +         ",
"          1 D.OX}.XXXX-.O O                                                                                               O X %.'.}.}.$XG.3 O .       ",
"        . y H.OX'.OX'.o.+ +                                                                                               . . Q ).}.OXOXQ.b O .       ",
"      . . l R.OXOXOX).Q X O                                                                                               .   b Q.}.'.OX).S + .       ",
"      . O J /.'.}.OX/.n o .                                                                                                   y L.OX}.$X'.Q % +       ",
"      . + ! ).$X}.$XW.u .                                                                                                   + t H.OX}.$XXX} % +       ",
"      . + ] {.$XOX$XR.y %                                                                                                   O r Z.$X'.OXOX%.+ O       ",
"      O + | }.}.OX$XY.t %                                                                                                   O e M.}.OXOXOX>.X O       ",
"      . + %.}.$XOX$XA.e %                                                                                                   O 4 l.}.OXOX$X5.. .       ",
"      + O ;.$X}.OXOXV.e %                                                                                                   + ; u.}.}.OX$X8.  .       ",
"      O + 2.$X}.OXOXn.e +                                                                                                   . % 6.}.}.OX$Xi.% .       ",
"      . o 3.$X}.OX$Xv.: *                                                                                                   . + >.}.}.}.OXl.4 O       ",
"      . @ w.$X}.OXOXg.: +                                                                             o o             o   o o o %.}.[.'.OXM.e @   o   ",
"      O & a.$X}.OXOXy.; +                           o                                         o O o o o                     o   ^ }.XXOXOXS.i O       ",
"    o O 3 l.OXOXOXOX8.* +                   + + X + o . % + o                             + + X + + + O + +                     R [.}.}.OXY.l O o     ",
"      + 5 m.OX}.OXOX2.% .               . + * - : a a : - * + +                       X + % 4 I ) { E s - + +       o       o O W ).}.[.OXQ.m %       ",
"      + t B.OX}.OXOX%.              o + + a :.n.U.^.^.U.n.>.a - + .               o O - a 9.I..X@X#XoX^.n.X.6 o +   o         O I Q.}.[.}.).H %       ",
"    o + s G.}.}.}.OX^             o + 6 @.^.&X&X%X%X%X&X&X%XE.@.- O o       o   o o : =.^.&X%X$XOXOXOX+X$XoXv.C - +         o % I Q.[.].[.(.T + o     ",
"      + s G.OX}.OXXX^           o + e d.@X$X$X}.$X}.OXOXoXOX%X@Xf.q + +       o + - 9.@X$X@X}.}.}.}.XX'.OXOX%XW._ ; +       . O U ).}.].[.(.I +       ",
"    o + t B.$X}.OX$X,.% %   . + + e h.$X$XOX}.}.}.}.}.}.}.}.}.oX&Xv.s * O o + O ; q.@X$X}.}.}.}.}.}.}.}.[.[.XXoX). .: + O X % - r.OX[.[.}.Y.m % .   o ",
"  o   O - y.OX}.$X$X~.R * o O + t g.@XOX}.}.[.[.`.Q.Q.(.'.[.[.}.$X%Xb.m * + + 4 q.+XOX}.}.'.{./.G.B.G./.[.}.[.}.$X).-.; + % 7 -.).}.[.[.}.k.6 O o     ",
"      O O } ).}.}.}.$X~.+.r * V z.XX}.}.[.[.'.B.=.W L %.l.).}.}.'.OX$XI.@.Q X.n.$XOX}.}.'.`.N.^ y e y %.Z.'.`.`.[.}. Xg.@.>.n.@XOX'.'.'.(.} O O   o o ",
"o o   o X 5 v.'.}.}.@X$X@XR.F.).$X}.}.[.'.(.u.w @ . o O t 3.Q.[.[.}.}.$X@X@X@X$XOX'.'.[.`.i.p O + @ O + n M._.`.[.'.}.OX@X$X$X'.'.'.'.'.j., O o o   o ",
"        X + H G.}.'.'.'.'.}.$X}.'.}.}.{.`.y.7 O O o . . O 3 ;.P.[.`.'.}.XX'.'.'._.`.'.`.i.t * + o   o O o b m.(.(.(.'.[._._._.`.`.(.`.M.B * o   o o o ",
"      o   o + ~ H.{.`.`.}.`.'.`.'.'.{.`.t.6 O .   .     o % > %.K.(.'.(.'.'.'.`.`.}./.0.t + O   o o .   O . k j.Q.(.(.(.(.(.(.(.`./.l.B + O   o o o o ",
"o       o   o O J v./._.`.`.`.`.{.`.L.3.6 O .       o       + X W b.P.(.`.(.`.`.Q.Z.%.4 O                 . . t <.D.Q.Q.(.(.(.P.B.&.q + o o   o o o o ",
"      o o     + + t | a.G.J.P.L.B.t.S 2 + .     .             . + t [ t.N.N.N.p.$.b O X o   .               . . = l #.t.a.p.e.| h + o O O o o o o o o ",
"o o   o     .   @ = 2 g P $.&.o.P h 3 * .     .     .   .   . @ , 7 h J ! } ] W l y 8 > # .   .   . . . . @ & 3 y x A ! ' ' ~ H B k q < & O o o o o o ",
"o o o o o @ , 0 h F K ! ' ' ' ' ' ! R F j 8 , $ $ # # $ > < 9 j A W ^ ^ ^ ^ ^ ^ ^ ! W Z h 8 < > > > > > 8 f l J ! ^ ^ ^ ~ ~ ~ ~ ~ ~ W F x 5 = + o o o ",
"o o o o & 8 N K ' ' ' ! R K K R W ! ! ! P A z g 0 9 9 0 f z N L P W W K J J G J L W W W J N z g f f f g j Z A L W D D Z Z Z Z G W ! ! W A h 5 * + o o ",
"o o o O , h G ' E ' ! K F Z N B B F J J J F Z c j j j j z N N G K A F B x l B B Z H G J A N c j h g g j c v Z Z Z B x h h h z Z R W W W J c q * + + o "
};
